<?xml version="1.0" encoding="UTF-8" standalone="no"?>
<!-- Created with Inkscape (http://www.inkscape.org/) -->

<svg
   width="11in"
   height="4.5in"
   viewBox="0 0 279.4 114.3"
   version="1.1"
   id="svg1"
   inkscape:version="1.3.2 (1:1.3.2+202311252150+091e20ef0f)"
   sodipodi:docname="chebyshev-differentiation-dirichlet.svg"
   inkscape:export-filename="chebyshev-differentiation-dirichlet.png"
   inkscape:export-xdpi="96"
   inkscape:export-ydpi="96"
   xmlns:inkscape="http://www.inkscape.org/namespaces/inkscape"
   xmlns:sodipodi="http://sodipodi.sourceforge.net/DTD/sodipodi-0.dtd"
   xmlns="http://www.w3.org/2000/svg"
   xmlns:svg="http://www.w3.org/2000/svg"
   xmlns:ns12="http://www.iki.fi/pav/software/textext/">
  <sodipodi:namedview
     id="namedview1"
     pagecolor="#ffffff"
     bordercolor="#666666"
     borderopacity="1.0"
     inkscape:showpageshadow="2"
     inkscape:pageopacity="0.0"
     inkscape:pagecheckerboard="0"
     inkscape:deskcolor="#d1d1d1"
     inkscape:document-units="mm"
     inkscape:zoom="0.75722503"
     inkscape:cx="503.15294"
     inkscape:cy="338.07652"
     inkscape:window-width="1880"
     inkscape:window-height="1008"
     inkscape:window-x="20"
     inkscape:window-y="52"
     inkscape:window-maximized="0"
     inkscape:current-layer="layer1" />
  <defs
     id="defs1">
    <marker
       style="overflow:visible"
       id="Triangle"
       refX="0"
       refY="0"
       orient="auto-start-reverse"
       inkscape:stockid="Triangle arrow"
       markerWidth="1"
       markerHeight="1"
       viewBox="0 0 1 1"
       inkscape:isstock="true"
       inkscape:collect="always"
       preserveAspectRatio="xMidYMid">
      <path
         transform="scale(0.5)"
         style="fill:context-stroke;fill-rule:evenodd;stroke:context-stroke;stroke-width:1pt"
         d="M 5.77,0 -2.88,5 V -5 Z"
         id="path135" />
    </marker>
    <marker
       style="overflow:visible"
       id="Triangle-2"
       refX="0"
       refY="0"
       orient="auto-start-reverse"
       inkscape:stockid="Triangle arrow"
       markerWidth="1"
       markerHeight="1"
       viewBox="0 0 1 1"
       inkscape:isstock="true"
       inkscape:collect="always"
       preserveAspectRatio="xMidYMid">
      <path
         transform="scale(0.5)"
         style="fill:context-stroke;fill-rule:evenodd;stroke:context-stroke;stroke-width:1pt"
         d="M 5.77,0 -2.88,5 V -5 Z"
         id="path135-8" />
    </marker>
    <marker
       style="overflow:visible"
       id="Triangle-9"
       refX="0"
       refY="0"
       orient="auto-start-reverse"
       inkscape:stockid="Triangle arrow"
       markerWidth="1"
       markerHeight="1"
       viewBox="0 0 1 1"
       inkscape:isstock="true"
       inkscape:collect="always"
       preserveAspectRatio="xMidYMid">
      <path
         transform="scale(0.5)"
         style="fill:context-stroke;fill-rule:evenodd;stroke:context-stroke;stroke-width:1pt"
         d="M 5.77,0 -2.88,5 V -5 Z"
         id="path135-4" />
    </marker>
  </defs>
  <g
     inkscape:label="Layer 1"
     inkscape:groupmode="layer"
     id="layer1">
    <rect
       style="fill:#cccccc;stroke:#000000;stroke-width:0.172945"
       id="rect3-0"
       width="12.447001"
       height="12.307977"
       x="54.062508"
       y="95.794632" />
    <rect
       style="fill:#cccccc;stroke:#000000;stroke-width:0.172945"
       id="rect3"
       width="12.447001"
       height="12.307977"
       x="54.309772"
       y="13.57367" />
    <rect
       style="fill:#666666;stroke:#000000;stroke-width:0.172945"
       id="rect3-1"
       width="12.447001"
       height="12.307977"
       x="212.00618"
       y="13.359036" />
    <rect
       style="fill:#666666;stroke:#000000;stroke-width:0.172945"
       id="rect3-1-2"
       width="12.447001"
       height="12.307977"
       x="212.06093"
       y="95.665993" />
    <g
       transform="matrix(1.1290851,0,0,1.1290851,44.268897,13.417421)"
       ns12:version="1.10.2"
       ns12:texconverter="pdflatex"
       ns12:pdfconverter="inkscape"
       ns12:text="$$\n\\begin{bmatrix}\n\\tilde{v}'_0 \\\\ \\tilde{v}'_1 \\\\ \\vdots \\\\ \\vdots \\\\ \\tilde{v}'_{N-1} \\\\ \\tilde{v}'_N\n\\end{bmatrix}\n=\n\\begin{bmatrix}\n&amp;&amp;&amp;&amp;&amp;&amp; \\\\ &amp;&amp;&amp;&amp;&amp;&amp; \\\\ &amp;&amp;&amp;&amp;&amp;&amp; \\\\ &amp;&amp;&amp; D_N &amp;&amp;&amp; \\\\ &amp;&amp;&amp;&amp;&amp;&amp; \\\\ &amp;&amp;&amp;&amp;&amp;&amp; \\\\ &amp;&amp;&amp;&amp;&amp;&amp;\n\\end{bmatrix}\n\\begin{bmatrix}\n\\tilde{v}_0 \\\\ \\tilde{v}_1 \\\\ \\vdots \\\\ \\vdots \\\\ \\tilde{v}_{N-1} \\\\ \\tilde{v}_N\n\\end{bmatrix}\n$$"
       ns12:preamble="/home/huntfeng/.config/inkscape/extensions/textext/default_packages.tex"
       ns12:scale="1.0"
       ns12:alignment="middle center"
       ns12:stroke-to-path="0"
       id="g2627"
       ns12:jacobian_sqrt="0.352778">
      <defs
         id="id-133e5d79-a492-41aa-a041-a195f9078415">
        <g
           id="id-00730a26-662c-4c3c-8c06-67c38705951b">
          <symbol
             overflow="visible"
             id="id-e7afce77-b3ab-4801-ba37-bf2744a186bd">
            <path
               style="stroke:none;stroke-width:0"
               d=""
               id="id-e91b3e8b-ada7-419c-9df0-495b37a7fa1e" />
          </symbol>
          <symbol
             overflow="visible"
             id="id-0714eafa-1511-431d-a331-706c533bc94f">
            <path
               style="stroke:none;stroke-width:0"
               d="m 3.25,17.546875 h 0.6875 v -17.25 h 2.625 v -0.6875 H 3.25 Z m 0,0"
               id="id-5090ead8-4f26-4e08-8036-a10ae9285a33" />
          </symbol>
          <symbol
             overflow="visible"
             id="id-acfc01eb-5958-403a-81f9-72cf59aae26e">
            <path
               style="stroke:none;stroke-width:0"
               d="m 3.25,5.984375 h 0.6875 v -6 H 3.25 Z m 0,0"
               id="id-d96e841d-8019-404a-9b2d-d09478f4f532" />
          </symbol>
          <symbol
             overflow="visible"
             id="id-c8095d17-b6f4-44f8-80f9-1db91fcd4476">
            <path
               style="stroke:none;stroke-width:0"
               d="m 3.25,17.53125 h 3.3125 v -0.6875 h -2.625 v -17.25 H 3.25 Z m 0,0"
               id="id-24dd6416-19a4-4a92-b843-53ec6c10bd5c" />
          </symbol>
          <symbol
             overflow="visible"
             id="id-8c7ae488-74c6-42c0-a241-79ee2416d511">
            <path
               style="stroke:none;stroke-width:0"
               d="m 2.703125,17.546875 h 0.6875 v -17.9375 H 0.0625 v 0.6875 h 2.640625 z m 0,0"
               id="id-967412c2-df89-4082-9038-3a50d06333fb" />
          </symbol>
          <symbol
             overflow="visible"
             id="id-7de7a10e-ac5a-4985-9b7b-356aa0c06fb0">
            <path
               style="stroke:none;stroke-width:0"
               d="m 2.703125,5.984375 h 0.6875 v -6 h -0.6875 z m 0,0"
               id="id-a3e12c71-6bd3-4604-a453-33aefc7b4e3a" />
          </symbol>
          <symbol
             overflow="visible"
             id="id-72a954aa-c00c-417e-a334-1352f03205d7">
            <path
               style="stroke:none;stroke-width:0"
               d="M 2.703125,16.84375 H 0.0625 v 0.6875 h 3.328125 v -17.9375 h -0.6875 z m 0,0"
               id="id-f09c6737-1636-4629-b37d-7ea03a005200" />
          </symbol>
          <symbol
             overflow="visible"
             id="id-0214db67-e741-4d63-a81c-15a07e2aa9f4">
            <path
               style="stroke:none;stroke-width:0"
               d=""
               id="id-2e0e5e26-c0cb-4e5c-9b92-882fa58fad45" />
          </symbol>
          <symbol
             overflow="visible"
             id="id-d0a76921-d520-4cfc-9c15-7867d7db0a28">
            <path
               style="stroke:none;stroke-width:0"
               d="M 4.140625,-6.515625 3.984375,-6.65625 c 0,0 -0.375,0.46875 -0.8125,0.46875 -0.234375,0 -0.484375,-0.140625 -0.65625,-0.25 C 2.25,-6.59375 2.078125,-6.65625 1.90625,-6.65625 c -0.375,0 -0.578125,0.21875 -1.078125,0.78125 l 0.15625,0.140625 c 0,0 0.375,-0.46875 0.8125,-0.46875 0.234375,0 0.484375,0.140625 0.65625,0.234375 0.265625,0.171875 0.453125,0.234375 0.625,0.234375 0.375,0 0.5625,-0.21875 1.0625,-0.78125 z m 0,0"
               id="id-2ea905c0-9d64-4428-96c9-f9675023a310" />
          </symbol>
          <symbol
             overflow="visible"
             id="id-8d844206-ed38-434d-be26-6289c1408b67">
            <path
               style="stroke:none;stroke-width:0"
               d="m 1.90625,-0.53125 c 0,-0.28125 -0.234375,-0.53125 -0.515625,-0.53125 -0.296875,0 -0.53125,0.25 -0.53125,0.53125 C 0.859375,-0.234375 1.09375,0 1.390625,0 1.671875,0 1.90625,-0.234375 1.90625,-0.53125 Z m 0,0"
               id="id-70dd2af1-0f0b-4759-8f33-66066bb988fe" />
          </symbol>
          <symbol
             overflow="visible"
             id="id-5a1e5ec1-4333-40bb-95d6-a0abfbc2615c">
            <path
               style="stroke:none;stroke-width:0"
               d="m 6.84375,-3.265625 c 0.15625,0 0.34375,0 0.34375,-0.1875 C 7.1875,-3.65625 7,-3.65625 6.859375,-3.65625 h -5.96875 c -0.140625,0 -0.328125,0 -0.328125,0.203125 0,0.1875 0.1875,0.1875 0.328125,0.1875 z m 0.015625,1.9375 c 0.140625,0 0.328125,0 0.328125,-0.203125 0,-0.1875 -0.1875,-0.1875 -0.34375,-0.1875 H 0.890625 c -0.140625,0 -0.328125,0 -0.328125,0.1875 0,0.203125 0.1875,0.203125 0.328125,0.203125 z m 0,0"
               id="id-e2ba677f-b53c-41a3-8acb-97d67a49d976" />
          </symbol>
          <symbol
             overflow="visible"
             id="id-86053737-ead6-45b5-9ae7-0b97d53974b5">
            <path
               style="stroke:none;stroke-width:0"
               d=""
               id="id-f4e6fd57-aebe-4304-b043-54a9c77fe3a4" />
          </symbol>
          <symbol
             overflow="visible"
             id="id-f849a8f8-500b-468b-9edb-eb4ee369824f">
            <path
               style="stroke:none;stroke-width:0"
               d="m 4.671875,-3.703125 c 0,-0.546875 -0.265625,-0.703125 -0.4375,-0.703125 -0.25,0 -0.5,0.265625 -0.5,0.484375 0,0.125 0.046875,0.1875 0.15625,0.296875 0.21875,0.203125 0.34375,0.453125 0.34375,0.8125 0,0.421875 -0.609375,2.703125 -1.765625,2.703125 -0.515625,0 -0.75,-0.34375 -0.75,-0.875 0,-0.546875 0.28125,-1.28125 0.578125,-2.109375 0.078125,-0.171875 0.125,-0.3125 0.125,-0.5 0,-0.4375 -0.3125,-0.8125 -0.8125,-0.8125 -0.9375,0 -1.3125,1.453125 -1.3125,1.53125 0,0.109375 0.09375,0.109375 0.109375,0.109375 0.109375,0 0.109375,-0.03125 0.15625,-0.1875 0.296875,-1 0.71875,-1.234375 1.015625,-1.234375 0.078125,0 0.25,0 0.25,0.3125 0,0.25 -0.109375,0.53125 -0.171875,0.703125 -0.4375,1.15625 -0.5625,1.609375 -0.5625,2.046875 0,1.078125 0.875,1.234375 1.328125,1.234375 1.671875,0 2.25,-3.296875 2.25,-3.8125 z m 0,0"
               id="id-0e2cc26d-35cc-48d1-bc17-d27f60377f02" />
          </symbol>
          <symbol
             overflow="visible"
             id="id-d832cf72-a3f7-4d1f-8af0-a9a9ada319ec">
            <path
               style="stroke:none;stroke-width:0"
               d="m 1.578125,-0.78125 c -0.09375,0.390625 -0.109375,0.46875 -0.90625,0.46875 -0.15625,0 -0.265625,0 -0.265625,0.1875 C 0.40625,0 0.484375,0 0.671875,0 h 3.3125 c 2.0625,0 4.03125,-2.109375 4.03125,-4.28125 0,-1.40625 -0.84375,-2.53125 -2.34375,-2.53125 h -3.34375 c -0.1875,0 -0.296875,0 -0.296875,0.1875 0,0.125 0.078125,0.125 0.28125,0.125 0.125,0 0.3125,0.015625 0.421875,0.015625 0.171875,0.03125 0.21875,0.046875 0.21875,0.171875 0,0.03125 0,0.0625 -0.03125,0.1875 z M 3.734375,-6.125 C 3.828125,-6.46875 3.84375,-6.5 4.28125,-6.5 h 1.0625 c 0.96875,0 1.796875,0.53125 1.796875,1.84375 0,0.484375 -0.1875,2.125 -1.046875,3.21875 -0.28125,0.375 -1.0625,1.125 -2.296875,1.125 h -1.125 c -0.140625,0 -0.15625,0 -0.21875,0 -0.09375,-0.015625 -0.125,-0.03125 -0.125,-0.109375 0,-0.03125 0,-0.046875 0.046875,-0.21875 z m 0,0"
               id="id-a092fc2b-a79d-41e3-a62d-6e245178a152" />
          </symbol>
          <symbol
             overflow="visible"
             id="id-ce44cbec-2ff7-444f-869d-505ea0d7f19b">
            <path
               style="stroke:none;stroke-width:0"
               d=""
               id="id-fcb1b505-04bb-4a3b-be42-86b5c45e4417" />
          </symbol>
          <symbol
             overflow="visible"
             id="id-e806a7f1-1755-460e-a878-e76a31641508">
            <path
               style="stroke:none;stroke-width:0"
               d="m 2.015625,-3.296875 c 0.0625,-0.109375 0.0625,-0.171875 0.0625,-0.21875 0,-0.21875 -0.1875,-0.375 -0.40625,-0.375 -0.265625,0 -0.34375,0.21875 -0.375,0.328125 L 0.375,-0.546875 c -0.015625,0.015625 -0.046875,0.09375 -0.046875,0.109375 0,0.078125 0.21875,0.15625 0.28125,0.15625 0.046875,0 0.046875,-0.015625 0.09375,-0.125 z m 0,0"
               id="id-9c6a7fa2-a09c-4268-9d1c-7376c6a09f14" />
          </symbol>
          <symbol
             overflow="visible"
             id="id-284f3ed6-eb68-4dd0-bd0f-0b81cdb94b38">
            <path
               style="stroke:none;stroke-width:0"
               d="m 5.1875,-1.578125 c 0.109375,0 0.28125,0 0.28125,-0.15625 0,-0.1875 -0.171875,-0.1875 -0.28125,-0.1875 H 1.03125 c -0.109375,0 -0.28125,0 -0.28125,0.171875 0,0.171875 0.15625,0.171875 0.28125,0.171875 z m 0,0"
               id="id-374a38fb-0850-4484-be30-a33652beaaa6" />
          </symbol>
          <symbol
             overflow="visible"
             id="id-a31fd48e-3bce-490c-845e-c0085dc166ff">
            <path
               style="stroke:none;stroke-width:0"
               d=""
               id="id-92ab0df4-fe93-4789-87f9-09814fd2b446" />
          </symbol>
          <symbol
             overflow="visible"
             id="id-4fbb0613-a9d3-451e-889a-6beac8740842">
            <path
               style="stroke:none;stroke-width:0"
               d="M 3.59375,-2.21875 C 3.59375,-2.984375 3.5,-3.546875 3.1875,-4.03125 2.96875,-4.34375 2.53125,-4.625 1.984375,-4.625 c -1.625,0 -1.625,1.90625 -1.625,2.40625 0,0.5 0,2.359375 1.625,2.359375 1.609375,0 1.609375,-1.859375 1.609375,-2.359375 z M 1.984375,-0.0625 c -0.328125,0 -0.75,-0.1875 -0.890625,-0.75 C 1,-1.21875 1,-1.796875 1,-2.3125 1,-2.828125 1,-3.359375 1.09375,-3.734375 1.25,-4.28125 1.6875,-4.4375 1.984375,-4.4375 c 0.375,0 0.734375,0.234375 0.859375,0.640625 0.109375,0.375 0.125,0.875 0.125,1.484375 0,0.515625 0,1.03125 -0.09375,1.46875 -0.140625,0.640625 -0.609375,0.78125 -0.890625,0.78125 z m 0,0"
               id="id-cc5292e2-4e76-4122-9d6d-7a6dab365e31" />
          </symbol>
          <symbol
             overflow="visible"
             id="id-b93f8bf2-4d78-4c47-913c-169863c12b14">
            <path
               style="stroke:none;stroke-width:0"
               d="m 2.328125,-4.4375 c 0,-0.1875 0,-0.1875 -0.203125,-0.1875 -0.453125,0.4375 -1.078125,0.4375 -1.359375,0.4375 v 0.25 c 0.15625,0 0.625,0 1,-0.1875 v 3.546875 c 0,0.234375 0,0.328125 -0.6875,0.328125 H 0.8125 V 0 c 0.125,0 0.984375,-0.03125 1.234375,-0.03125 0.21875,0 1.09375,0.03125 1.25,0.03125 V -0.25 H 3.03125 c -0.703125,0 -0.703125,-0.09375 -0.703125,-0.328125 z m 0,0"
               id="id-9c2e17bb-3e09-4760-ae19-b53c9420cebc" />
          </symbol>
          <symbol
             overflow="visible"
             id="id-5a285e9f-884c-4b20-902f-b84055b6db15">
            <path
               style="stroke:none;stroke-width:0"
               d=""
               id="id-80255da4-f771-45ac-9bc4-304421b45c47" />
          </symbol>
          <symbol
             overflow="visible"
             id="id-104662ec-f09e-41b3-ac2a-6d8dcbbf20bb">
            <path
               style="stroke:none;stroke-width:0"
               d="M 5.8125,-4 C 5.875,-4.265625 6,-4.5 6.546875,-4.515625 c 0.03125,0 0.140625,0 0.140625,-0.140625 0,-0.046875 -0.03125,-0.109375 -0.109375,-0.109375 -0.21875,0 -0.484375,0.03125 -0.71875,0.03125 -0.171875,0 -0.5625,-0.03125 -0.734375,-0.03125 -0.03125,0 -0.140625,0 -0.140625,0.15625 0,0.09375 0.09375,0.09375 0.15625,0.09375 0.328125,0.015625 0.4375,0.125 0.4375,0.296875 0,0.046875 0,0.09375 -0.03125,0.15625 l -0.75,3.046875 -1.765625,-3.625 c -0.0625,-0.125 -0.078125,-0.125 -0.25,-0.125 H 1.828125 c -0.125,0 -0.21875,0 -0.21875,0.15625 0,0.09375 0.078125,0.09375 0.234375,0.09375 0.140625,0 0.296875,0.015625 0.4375,0.046875 L 1.359375,-0.75 c -0.0625,0.265625 -0.1875,0.484375 -0.734375,0.5 -0.046875,0 -0.140625,0 -0.140625,0.140625 C 0.484375,-0.03125 0.53125,0 0.578125,0 0.8125,0 1.078125,-0.03125 1.3125,-0.03125 1.484375,-0.03125 1.875,0 2.046875,0 2.125,0 2.1875,-0.03125 2.1875,-0.140625 2.1875,-0.25 2.109375,-0.25 2.03125,-0.25 c -0.4375,-0.015625 -0.4375,-0.203125 -0.4375,-0.296875 0,-0.03125 0,-0.0625 0.015625,-0.171875 l 0.90625,-3.5625 2.03125,4.15625 C 4.59375,0 4.625,0 4.703125,0 4.8125,0 4.8125,-0.015625 4.84375,-0.140625 Z m 0,0"
               id="id-89314b33-ea5f-4924-8f93-1ac0611a6458" />
          </symbol>
        </g>
      </defs>
      <g
         id="id-fe097e92-70b5-4615-aaf0-18b228fbb7b4"
         transform="translate(-221.103,-136.421)">
        <g
           style="fill:#000000;fill-opacity:1"
           id="id-777ec2d6-6b55-4da4-af5a-0ae7db8b7322">
          <g
             transform="translate(217.853,136.812)"
             id="g9477">
            <path
               style="stroke:none;stroke-width:0"
               d="m 3.25,17.546875 h 0.6875 v -17.25 h 2.625 v -0.6875 H 3.25 Z m 0,0"
               id="id-83b66cf7-ee01-4347-9da6-4411ab7e0908" />
          </g>
        </g>
        <g
           style="fill:#000000;fill-opacity:1"
           id="id-baf47fa8-3c82-4782-acf3-d06256fbd643">
          <g
             transform="translate(217.853,154.347)"
             id="g2315">
            <path
               style="stroke:none;stroke-width:0"
               d="m 3.25,5.984375 h 0.6875 v -6 H 3.25 Z m 0,0"
               id="id-a6dfe964-62c5-4675-803b-5603b6fc52ec" />
          </g>
        </g>
        <g
           style="fill:#000000;fill-opacity:1"
           id="id-df69ce69-4624-483d-b157-8f3094f11699">
          <g
             transform="translate(217.853,160.324)"
             id="g8367">
            <path
               style="stroke:none;stroke-width:0"
               d="m 3.25,5.984375 h 0.6875 v -6 H 3.25 Z m 0,0"
               id="id-8ff0f2fa-b5c1-40be-8d4c-66d9489a1bde" />
          </g>
        </g>
        <g
           style="fill:#000000;fill-opacity:1"
           id="id-6ed4f797-c4af-45cc-9114-50a1b750a2e0">
          <g
             transform="translate(217.853,166.302)"
             id="g9537">
            <path
               style="stroke:none;stroke-width:0"
               d="m 3.25,5.984375 h 0.6875 v -6 H 3.25 Z m 0,0"
               id="id-78a92b49-2e38-4ad2-9642-d7db83aff06b" />
          </g>
        </g>
        <g
           style="fill:#000000;fill-opacity:1"
           id="id-93fc6c02-72db-4465-aefa-605c9d25f6f6">
          <g
             transform="translate(217.853,172.279)"
             id="g9629">
            <path
               style="stroke:none;stroke-width:0"
               d="m 3.25,5.984375 h 0.6875 v -6 H 3.25 Z m 0,0"
               id="id-72f696a0-8a57-4e0c-85b8-1cedc8204f64" />
          </g>
        </g>
        <g
           style="fill:#000000;fill-opacity:1"
           id="id-dbb501d4-fe1e-4512-bea2-47597ff141fc">
          <g
             transform="translate(217.853,178.257)"
             id="g6371">
            <path
               style="stroke:none;stroke-width:0"
               d="m 3.25,5.984375 h 0.6875 v -6 H 3.25 Z m 0,0"
               id="id-16592e9a-aacc-4644-82a6-cb727694f7ac" />
          </g>
        </g>
        <g
           style="fill:#000000;fill-opacity:1"
           id="id-ce349f05-b01c-4ba9-bb22-4a6b135fee62">
          <g
             transform="translate(217.853,184.235)"
             id="g7673">
            <path
               style="stroke:none;stroke-width:0"
               d="m 3.25,5.984375 h 0.6875 v -6 H 3.25 Z m 0,0"
               id="id-2d93e0b4-be77-43b0-8c56-3f26df06a9b5" />
          </g>
        </g>
        <g
           style="fill:#000000;fill-opacity:1"
           id="id-443106ed-7df6-4f36-91cf-b82b5d4c096c">
          <g
             transform="translate(217.853,190.212)"
             id="g7293">
            <path
               style="stroke:none;stroke-width:0"
               d="m 3.25,5.984375 h 0.6875 v -6 H 3.25 Z m 0,0"
               id="id-4fc839dc-4d9e-426e-8aad-2d2284a3128d" />
          </g>
        </g>
        <g
           style="fill:#000000;fill-opacity:1"
           id="id-04146a68-50ba-4a19-810f-908333651d14">
          <g
             transform="translate(217.853,196.19)"
             id="g1398">
            <path
               style="stroke:none;stroke-width:0"
               d="m 3.25,5.984375 h 0.6875 v -6 H 3.25 Z m 0,0"
               id="id-b8b4b45c-7b0d-4650-82b1-e160fb81b3a9" />
          </g>
        </g>
        <g
           style="fill:#000000;fill-opacity:1"
           id="id-13df44ac-6986-47d9-892f-d4f07869c08e">
          <g
             transform="translate(217.853,202.566)"
             id="g357">
            <path
               style="stroke:none;stroke-width:0"
               d="m 3.25,17.53125 h 3.3125 v -0.6875 h -2.625 v -17.25 H 3.25 Z m 0,0"
               id="id-7910e2d0-91d3-4fb6-a4ce-66add9231284" />
          </g>
        </g>
        <g
           style="fill:#000000;fill-opacity:1"
           id="id-4b84b9f3-5af1-4523-b309-a3a044d900c5">
          <g
             transform="translate(231.517,144.129)"
             id="g6504">
            <path
               style="stroke:none;stroke-width:0"
               d="M 4.140625,-6.515625 3.984375,-6.65625 c 0,0 -0.375,0.46875 -0.8125,0.46875 -0.234375,0 -0.484375,-0.140625 -0.65625,-0.25 C 2.25,-6.59375 2.078125,-6.65625 1.90625,-6.65625 c -0.375,0 -0.578125,0.21875 -1.078125,0.78125 l 0.15625,0.140625 c 0,0 0.375,-0.46875 0.8125,-0.46875 0.234375,0 0.484375,0.140625 0.65625,0.234375 0.265625,0.171875 0.453125,0.234375 0.625,0.234375 0.375,0 0.5625,-0.21875 1.0625,-0.78125 z m 0,0"
               id="id-28bf24a4-e6fe-4f01-887a-7cc91dc3d69d" />
          </g>
        </g>
        <g
           style="fill:#000000;fill-opacity:1"
           id="id-85fb2187-0f31-4681-87ea-f78c78d1b222">
          <g
             transform="translate(231.137,144.129)"
             id="g6963">
            <path
               style="stroke:none;stroke-width:0"
               d="m 4.671875,-3.703125 c 0,-0.546875 -0.265625,-0.703125 -0.4375,-0.703125 -0.25,0 -0.5,0.265625 -0.5,0.484375 0,0.125 0.046875,0.1875 0.15625,0.296875 0.21875,0.203125 0.34375,0.453125 0.34375,0.8125 0,0.421875 -0.609375,2.703125 -1.765625,2.703125 -0.515625,0 -0.75,-0.34375 -0.75,-0.875 0,-0.546875 0.28125,-1.28125 0.578125,-2.109375 0.078125,-0.171875 0.125,-0.3125 0.125,-0.5 0,-0.4375 -0.3125,-0.8125 -0.8125,-0.8125 -0.9375,0 -1.3125,1.453125 -1.3125,1.53125 0,0.109375 0.09375,0.109375 0.109375,0.109375 0.109375,0 0.109375,-0.03125 0.15625,-0.1875 0.296875,-1 0.71875,-1.234375 1.015625,-1.234375 0.078125,0 0.25,0 0.25,0.3125 0,0.25 -0.109375,0.53125 -0.171875,0.703125 -0.4375,1.15625 -0.5625,1.609375 -0.5625,2.046875 0,1.078125 0.875,1.234375 1.328125,1.234375 1.671875,0 2.25,-3.296875 2.25,-3.8125 z m 0,0"
               id="id-442971e1-fbb7-4c0b-b7ae-23e8be1b1864" />
          </g>
        </g>
        <g
           style="fill:#000000;fill-opacity:1"
           id="id-3bfc1f15-94b7-4088-8ba4-b5daac31a54b">
          <g
             transform="translate(236.324,140.514)"
             id="g950">
            <path
               style="stroke:none;stroke-width:0"
               d="m 2.015625,-3.296875 c 0.0625,-0.109375 0.0625,-0.171875 0.0625,-0.21875 0,-0.21875 -0.1875,-0.375 -0.40625,-0.375 -0.265625,0 -0.34375,0.21875 -0.375,0.328125 L 0.375,-0.546875 c -0.015625,0.015625 -0.046875,0.09375 -0.046875,0.109375 0,0.078125 0.21875,0.15625 0.28125,0.15625 0.046875,0 0.046875,-0.015625 0.09375,-0.125 z m 0,0"
               id="id-74aa7b4d-2eaa-4cb4-82d6-39730d8b085c" />
          </g>
        </g>
        <g
           style="fill:#000000;fill-opacity:1"
           id="id-328cc549-a528-4761-a9ea-54482324e07a">
          <g
             transform="translate(235.966,146.602)"
             id="g7756">
            <path
               style="stroke:none;stroke-width:0"
               d="M 3.59375,-2.21875 C 3.59375,-2.984375 3.5,-3.546875 3.1875,-4.03125 2.96875,-4.34375 2.53125,-4.625 1.984375,-4.625 c -1.625,0 -1.625,1.90625 -1.625,2.40625 0,0.5 0,2.359375 1.625,2.359375 1.609375,0 1.609375,-1.859375 1.609375,-2.359375 z M 1.984375,-0.0625 c -0.328125,0 -0.75,-0.1875 -0.890625,-0.75 C 1,-1.21875 1,-1.796875 1,-2.3125 1,-2.828125 1,-3.359375 1.09375,-3.734375 1.25,-4.28125 1.6875,-4.4375 1.984375,-4.4375 c 0.375,0 0.734375,0.234375 0.859375,0.640625 0.109375,0.375 0.125,0.875 0.125,1.484375 0,0.515625 0,1.03125 -0.09375,1.46875 -0.140625,0.640625 -0.609375,0.78125 -0.890625,0.78125 z m 0,0"
               id="id-686d7642-cce5-4647-b898-4aff037fbda1" />
          </g>
        </g>
        <g
           style="fill:#000000;fill-opacity:1"
           id="id-35e9cb99-35ce-41ca-9a78-69d780e1b5a7">
          <g
             transform="translate(231.517,156.085)"
             id="g3257">
            <path
               style="stroke:none;stroke-width:0"
               d="M 4.140625,-6.515625 3.984375,-6.65625 c 0,0 -0.375,0.46875 -0.8125,0.46875 -0.234375,0 -0.484375,-0.140625 -0.65625,-0.25 C 2.25,-6.59375 2.078125,-6.65625 1.90625,-6.65625 c -0.375,0 -0.578125,0.21875 -1.078125,0.78125 l 0.15625,0.140625 c 0,0 0.375,-0.46875 0.8125,-0.46875 0.234375,0 0.484375,0.140625 0.65625,0.234375 0.265625,0.171875 0.453125,0.234375 0.625,0.234375 0.375,0 0.5625,-0.21875 1.0625,-0.78125 z m 0,0"
               id="id-1eb01615-8b55-4e08-b235-f8e23c7a570f" />
          </g>
        </g>
        <g
           style="fill:#000000;fill-opacity:1"
           id="id-3197b972-70ce-4147-8a7b-2a4d8ffe9ef7">
          <g
             transform="translate(231.137,156.085)"
             id="g8781">
            <path
               style="stroke:none;stroke-width:0"
               d="m 4.671875,-3.703125 c 0,-0.546875 -0.265625,-0.703125 -0.4375,-0.703125 -0.25,0 -0.5,0.265625 -0.5,0.484375 0,0.125 0.046875,0.1875 0.15625,0.296875 0.21875,0.203125 0.34375,0.453125 0.34375,0.8125 0,0.421875 -0.609375,2.703125 -1.765625,2.703125 -0.515625,0 -0.75,-0.34375 -0.75,-0.875 0,-0.546875 0.28125,-1.28125 0.578125,-2.109375 0.078125,-0.171875 0.125,-0.3125 0.125,-0.5 0,-0.4375 -0.3125,-0.8125 -0.8125,-0.8125 -0.9375,0 -1.3125,1.453125 -1.3125,1.53125 0,0.109375 0.09375,0.109375 0.109375,0.109375 0.109375,0 0.109375,-0.03125 0.15625,-0.1875 0.296875,-1 0.71875,-1.234375 1.015625,-1.234375 0.078125,0 0.25,0 0.25,0.3125 0,0.25 -0.109375,0.53125 -0.171875,0.703125 -0.4375,1.15625 -0.5625,1.609375 -0.5625,2.046875 0,1.078125 0.875,1.234375 1.328125,1.234375 1.671875,0 2.25,-3.296875 2.25,-3.8125 z m 0,0"
               id="id-16cd372c-c685-4b32-bd6d-cfd97496521a" />
          </g>
        </g>
        <g
           style="fill:#000000;fill-opacity:1"
           id="id-c11fad78-73cd-48a9-b053-f15d89971b89">
          <g
             transform="translate(236.324,152.469)"
             id="g3998">
            <path
               style="stroke:none;stroke-width:0"
               d="m 2.015625,-3.296875 c 0.0625,-0.109375 0.0625,-0.171875 0.0625,-0.21875 0,-0.21875 -0.1875,-0.375 -0.40625,-0.375 -0.265625,0 -0.34375,0.21875 -0.375,0.328125 L 0.375,-0.546875 c -0.015625,0.015625 -0.046875,0.09375 -0.046875,0.109375 0,0.078125 0.21875,0.15625 0.28125,0.15625 0.046875,0 0.046875,-0.015625 0.09375,-0.125 z m 0,0"
               id="id-bc6114b6-12e3-4df2-9f58-7dcc9c68b5aa" />
          </g>
        </g>
        <g
           style="fill:#000000;fill-opacity:1"
           id="id-fed3c6a2-44e5-4e4c-8f15-f9afafcae7bd">
          <g
             transform="translate(235.966,158.557)"
             id="g5852">
            <path
               style="stroke:none;stroke-width:0"
               d="m 2.328125,-4.4375 c 0,-0.1875 0,-0.1875 -0.203125,-0.1875 -0.453125,0.4375 -1.078125,0.4375 -1.359375,0.4375 v 0.25 c 0.15625,0 0.625,0 1,-0.1875 v 3.546875 c 0,0.234375 0,0.328125 -0.6875,0.328125 H 0.8125 V 0 c 0.125,0 0.984375,-0.03125 1.234375,-0.03125 0.21875,0 1.09375,0.03125 1.25,0.03125 V -0.25 H 3.03125 c -0.703125,0 -0.703125,-0.09375 -0.703125,-0.328125 z m 0,0"
               id="id-b71a61fc-db02-402f-8443-5c4c0379ccbf" />
          </g>
        </g>
        <g
           style="fill:#000000;fill-opacity:1"
           id="id-327029dc-754c-41ea-aa19-56de48d3ddd7">
          <g
             transform="translate(234.403,166.7)"
             id="g4404">
            <path
               style="stroke:none;stroke-width:0"
               d="m 1.90625,-0.53125 c 0,-0.28125 -0.234375,-0.53125 -0.515625,-0.53125 -0.296875,0 -0.53125,0.25 -0.53125,0.53125 C 0.859375,-0.234375 1.09375,0 1.390625,0 1.671875,0 1.90625,-0.234375 1.90625,-0.53125 Z m 0,0"
               id="id-7617eeec-48bb-472c-b9c9-887610a963a4" />
          </g>
        </g>
        <g
           style="fill:#000000;fill-opacity:1"
           id="id-69647b25-e809-4795-9b40-13c0664d760d">
          <g
             transform="translate(234.403,170.685)"
             id="g2368">
            <path
               style="stroke:none;stroke-width:0"
               d="m 1.90625,-0.53125 c 0,-0.28125 -0.234375,-0.53125 -0.515625,-0.53125 -0.296875,0 -0.53125,0.25 -0.53125,0.53125 C 0.859375,-0.234375 1.09375,0 1.390625,0 1.671875,0 1.90625,-0.234375 1.90625,-0.53125 Z m 0,0"
               id="id-318f8724-25b2-420c-bf7c-5059ae4f92f1" />
          </g>
        </g>
        <g
           style="fill:#000000;fill-opacity:1"
           id="id-a2dcbfe1-30a0-44d5-99b7-e29c4c9fb240">
          <g
             transform="translate(234.403,174.67)"
             id="g3838">
            <path
               style="stroke:none;stroke-width:0"
               d="m 1.90625,-0.53125 c 0,-0.28125 -0.234375,-0.53125 -0.515625,-0.53125 -0.296875,0 -0.53125,0.25 -0.53125,0.53125 C 0.859375,-0.234375 1.09375,0 1.390625,0 1.671875,0 1.90625,-0.234375 1.90625,-0.53125 Z m 0,0"
               id="id-bc7e1893-5b05-46a7-9e67-6552aba1d0ca" />
          </g>
        </g>
        <g
           style="fill:#000000;fill-opacity:1"
           id="id-dcbfeec3-ef93-492c-b11c-7e071249c44c">
          <g
             transform="translate(234.403,185.286)"
             id="g954">
            <path
               style="stroke:none;stroke-width:0"
               d="m 1.90625,-0.53125 c 0,-0.28125 -0.234375,-0.53125 -0.515625,-0.53125 -0.296875,0 -0.53125,0.25 -0.53125,0.53125 C 0.859375,-0.234375 1.09375,0 1.390625,0 1.671875,0 1.90625,-0.234375 1.90625,-0.53125 Z m 0,0"
               id="id-b6f1d486-229d-4ca5-8921-f5046b95d2ba" />
          </g>
        </g>
        <g
           style="fill:#000000;fill-opacity:1"
           id="id-2a828b15-1956-41fb-b759-15229a19d0fd">
          <g
             transform="translate(234.403,189.271)"
             id="g2885">
            <path
               style="stroke:none;stroke-width:0"
               d="m 1.90625,-0.53125 c 0,-0.28125 -0.234375,-0.53125 -0.515625,-0.53125 -0.296875,0 -0.53125,0.25 -0.53125,0.53125 C 0.859375,-0.234375 1.09375,0 1.390625,0 1.671875,0 1.90625,-0.234375 1.90625,-0.53125 Z m 0,0"
               id="id-ca05e95e-228e-41ec-9881-8d7439833a41" />
          </g>
        </g>
        <g
           style="fill:#000000;fill-opacity:1"
           id="id-77c9d9a2-6002-4a11-ba40-e46f9473ef58">
          <g
             transform="translate(234.403,193.256)"
             id="g5409">
            <path
               style="stroke:none;stroke-width:0"
               d="m 1.90625,-0.53125 c 0,-0.28125 -0.234375,-0.53125 -0.515625,-0.53125 -0.296875,0 -0.53125,0.25 -0.53125,0.53125 C 0.859375,-0.234375 1.09375,0 1.390625,0 1.671875,0 1.90625,-0.234375 1.90625,-0.53125 Z m 0,0"
               id="id-bad7e332-46ba-47f5-8340-c232a31ca69b" />
          </g>
        </g>
        <g
           style="fill:#000000;fill-opacity:1"
           id="id-9f178af3-ebc5-4981-8e5f-f27896f4e140">
          <g
             transform="translate(224.874,205.211)"
             id="g6557">
            <path
               style="stroke:none;stroke-width:0"
               d="M 4.140625,-6.515625 3.984375,-6.65625 c 0,0 -0.375,0.46875 -0.8125,0.46875 -0.234375,0 -0.484375,-0.140625 -0.65625,-0.25 C 2.25,-6.59375 2.078125,-6.65625 1.90625,-6.65625 c -0.375,0 -0.578125,0.21875 -1.078125,0.78125 l 0.15625,0.140625 c 0,0 0.375,-0.46875 0.8125,-0.46875 0.234375,0 0.484375,0.140625 0.65625,0.234375 0.265625,0.171875 0.453125,0.234375 0.625,0.234375 0.375,0 0.5625,-0.21875 1.0625,-0.78125 z m 0,0"
               id="id-a9696c51-e9f6-41cb-a178-805bf8d461a7" />
          </g>
        </g>
        <g
           style="fill:#000000;fill-opacity:1"
           id="id-4d6c441d-4a2f-4c03-8a1f-d7687d76af03">
          <g
             transform="translate(224.495,205.211)"
             id="g1531">
            <path
               style="stroke:none;stroke-width:0"
               d="m 4.671875,-3.703125 c 0,-0.546875 -0.265625,-0.703125 -0.4375,-0.703125 -0.25,0 -0.5,0.265625 -0.5,0.484375 0,0.125 0.046875,0.1875 0.15625,0.296875 0.21875,0.203125 0.34375,0.453125 0.34375,0.8125 0,0.421875 -0.609375,2.703125 -1.765625,2.703125 -0.515625,0 -0.75,-0.34375 -0.75,-0.875 0,-0.546875 0.28125,-1.28125 0.578125,-2.109375 0.078125,-0.171875 0.125,-0.3125 0.125,-0.5 0,-0.4375 -0.3125,-0.8125 -0.8125,-0.8125 -0.9375,0 -1.3125,1.453125 -1.3125,1.53125 0,0.109375 0.09375,0.109375 0.109375,0.109375 0.109375,0 0.109375,-0.03125 0.15625,-0.1875 0.296875,-1 0.71875,-1.234375 1.015625,-1.234375 0.078125,0 0.25,0 0.25,0.3125 0,0.25 -0.109375,0.53125 -0.171875,0.703125 -0.4375,1.15625 -0.5625,1.609375 -0.5625,2.046875 0,1.078125 0.875,1.234375 1.328125,1.234375 1.671875,0 2.25,-3.296875 2.25,-3.8125 z m 0,0"
               id="id-feb0296f-d566-4831-8d08-0c09a0f31f6a" />
          </g>
        </g>
        <g
           style="fill:#000000;fill-opacity:1"
           id="id-50e1c1de-0280-49d0-8b49-391ff1fa7d6e">
          <g
             transform="translate(229.681,201.596)"
             id="g8025">
            <path
               style="stroke:none;stroke-width:0"
               d="m 2.015625,-3.296875 c 0.0625,-0.109375 0.0625,-0.171875 0.0625,-0.21875 0,-0.21875 -0.1875,-0.375 -0.40625,-0.375 -0.265625,0 -0.34375,0.21875 -0.375,0.328125 L 0.375,-0.546875 c -0.015625,0.015625 -0.046875,0.09375 -0.046875,0.109375 0,0.078125 0.21875,0.15625 0.28125,0.15625 0.046875,0 0.046875,-0.015625 0.09375,-0.125 z m 0,0"
               id="id-b72d98ac-ceb8-425b-b958-5facc4e3cc21" />
          </g>
        </g>
        <g
           style="fill:#000000;fill-opacity:1"
           id="id-4792772f-3ebc-4ead-b346-13b4409c3163">
          <g
             transform="translate(229.324,207.955)"
             id="g5490">
            <path
               style="stroke:none;stroke-width:0"
               d="M 5.8125,-4 C 5.875,-4.265625 6,-4.5 6.546875,-4.515625 c 0.03125,0 0.140625,0 0.140625,-0.140625 0,-0.046875 -0.03125,-0.109375 -0.109375,-0.109375 -0.21875,0 -0.484375,0.03125 -0.71875,0.03125 -0.171875,0 -0.5625,-0.03125 -0.734375,-0.03125 -0.03125,0 -0.140625,0 -0.140625,0.15625 0,0.09375 0.09375,0.09375 0.15625,0.09375 0.328125,0.015625 0.4375,0.125 0.4375,0.296875 0,0.046875 0,0.09375 -0.03125,0.15625 l -0.75,3.046875 -1.765625,-3.625 c -0.0625,-0.125 -0.078125,-0.125 -0.25,-0.125 H 1.828125 c -0.125,0 -0.21875,0 -0.21875,0.15625 0,0.09375 0.078125,0.09375 0.234375,0.09375 0.140625,0 0.296875,0.015625 0.4375,0.046875 L 1.359375,-0.75 c -0.0625,0.265625 -0.1875,0.484375 -0.734375,0.5 -0.046875,0 -0.140625,0 -0.140625,0.140625 C 0.484375,-0.03125 0.53125,0 0.578125,0 0.8125,0 1.078125,-0.03125 1.3125,-0.03125 1.484375,-0.03125 1.875,0 2.046875,0 2.125,0 2.1875,-0.03125 2.1875,-0.140625 2.1875,-0.25 2.109375,-0.25 2.03125,-0.25 c -0.4375,-0.015625 -0.4375,-0.203125 -0.4375,-0.296875 0,-0.03125 0,-0.0625 0.015625,-0.171875 l 0.90625,-3.5625 2.03125,4.15625 C 4.59375,0 4.625,0 4.703125,0 4.8125,0 4.8125,-0.015625 4.84375,-0.140625 Z m 0,0"
               id="id-dffc24ed-516d-4bf4-899e-eb7bfbc192d8" />
          </g>
        </g>
        <g
           style="fill:#000000;fill-opacity:1"
           id="id-96c90430-ae2c-4287-b71d-dff462342b8c">
          <g
             transform="translate(236.382,207.955)"
             id="g5672">
            <path
               style="stroke:none;stroke-width:0"
               d="m 5.1875,-1.578125 c 0.109375,0 0.28125,0 0.28125,-0.15625 0,-0.1875 -0.171875,-0.1875 -0.28125,-0.1875 H 1.03125 c -0.109375,0 -0.28125,0 -0.28125,0.171875 0,0.171875 0.15625,0.171875 0.28125,0.171875 z m 0,0"
               id="id-62c8fba4-d3c5-4776-aac2-a81648a7d1fe" />
          </g>
        </g>
        <g
           style="fill:#000000;fill-opacity:1"
           id="id-7af6bae7-37e7-4c87-90ac-b3b197d4186d">
          <g
             transform="translate(242.609,207.955)"
             id="g4417">
            <path
               style="stroke:none;stroke-width:0"
               d="m 2.328125,-4.4375 c 0,-0.1875 0,-0.1875 -0.203125,-0.1875 -0.453125,0.4375 -1.078125,0.4375 -1.359375,0.4375 v 0.25 c 0.15625,0 0.625,0 1,-0.1875 v 3.546875 c 0,0.234375 0,0.328125 -0.6875,0.328125 H 0.8125 V 0 c 0.125,0 0.984375,-0.03125 1.234375,-0.03125 0.21875,0 1.09375,0.03125 1.25,0.03125 V -0.25 H 3.03125 c -0.703125,0 -0.703125,-0.09375 -0.703125,-0.328125 z m 0,0"
               id="id-ad043acd-7f7c-452a-b3be-80333ef9b3e1" />
          </g>
        </g>
        <g
           style="fill:#000000;fill-opacity:1"
           id="id-d74a5aab-6969-4491-bd9c-a5424777fb08">
          <g
             transform="translate(229.973,217.167)"
             id="g6182">
            <path
               style="stroke:none;stroke-width:0"
               d="M 4.140625,-6.515625 3.984375,-6.65625 c 0,0 -0.375,0.46875 -0.8125,0.46875 -0.234375,0 -0.484375,-0.140625 -0.65625,-0.25 C 2.25,-6.59375 2.078125,-6.65625 1.90625,-6.65625 c -0.375,0 -0.578125,0.21875 -1.078125,0.78125 l 0.15625,0.140625 c 0,0 0.375,-0.46875 0.8125,-0.46875 0.234375,0 0.484375,0.140625 0.65625,0.234375 0.265625,0.171875 0.453125,0.234375 0.625,0.234375 0.375,0 0.5625,-0.21875 1.0625,-0.78125 z m 0,0"
               id="id-f4265d9f-9801-4231-a439-43aca2395c50" />
          </g>
        </g>
        <g
           style="fill:#000000;fill-opacity:1"
           id="id-edcf6b8e-8de3-4d8e-93a1-18307ef5d0cb">
          <g
             transform="translate(229.594,217.167)"
             id="g7105">
            <path
               style="stroke:none;stroke-width:0"
               d="m 4.671875,-3.703125 c 0,-0.546875 -0.265625,-0.703125 -0.4375,-0.703125 -0.25,0 -0.5,0.265625 -0.5,0.484375 0,0.125 0.046875,0.1875 0.15625,0.296875 0.21875,0.203125 0.34375,0.453125 0.34375,0.8125 0,0.421875 -0.609375,2.703125 -1.765625,2.703125 -0.515625,0 -0.75,-0.34375 -0.75,-0.875 0,-0.546875 0.28125,-1.28125 0.578125,-2.109375 0.078125,-0.171875 0.125,-0.3125 0.125,-0.5 0,-0.4375 -0.3125,-0.8125 -0.8125,-0.8125 -0.9375,0 -1.3125,1.453125 -1.3125,1.53125 0,0.109375 0.09375,0.109375 0.109375,0.109375 0.109375,0 0.109375,-0.03125 0.15625,-0.1875 0.296875,-1 0.71875,-1.234375 1.015625,-1.234375 0.078125,0 0.25,0 0.25,0.3125 0,0.25 -0.109375,0.53125 -0.171875,0.703125 -0.4375,1.15625 -0.5625,1.609375 -0.5625,2.046875 0,1.078125 0.875,1.234375 1.328125,1.234375 1.671875,0 2.25,-3.296875 2.25,-3.8125 z m 0,0"
               id="id-559db214-9f13-4560-a4bd-1ba62a9d0a92" />
          </g>
        </g>
        <g
           style="fill:#000000;fill-opacity:1"
           id="id-e58b05f0-aaa8-49d3-bafb-2a29b92cf03a">
          <g
             transform="translate(234.78,213.551)"
             id="g4568">
            <path
               style="stroke:none;stroke-width:0"
               d="m 2.015625,-3.296875 c 0.0625,-0.109375 0.0625,-0.171875 0.0625,-0.21875 0,-0.21875 -0.1875,-0.375 -0.40625,-0.375 -0.265625,0 -0.34375,0.21875 -0.375,0.328125 L 0.375,-0.546875 c -0.015625,0.015625 -0.046875,0.09375 -0.046875,0.109375 0,0.078125 0.21875,0.15625 0.28125,0.15625 0.046875,0 0.046875,-0.015625 0.09375,-0.125 z m 0,0"
               id="id-63ac8f38-2a57-4496-a21b-a2052061a6c7" />
          </g>
        </g>
        <g
           style="fill:#000000;fill-opacity:1"
           id="id-56b01af0-a132-4ce0-8648-c4b184cc39a4">
          <g
             transform="translate(234.423,219.911)"
             id="g1784">
            <path
               style="stroke:none;stroke-width:0"
               d="M 5.8125,-4 C 5.875,-4.265625 6,-4.5 6.546875,-4.515625 c 0.03125,0 0.140625,0 0.140625,-0.140625 0,-0.046875 -0.03125,-0.109375 -0.109375,-0.109375 -0.21875,0 -0.484375,0.03125 -0.71875,0.03125 -0.171875,0 -0.5625,-0.03125 -0.734375,-0.03125 -0.03125,0 -0.140625,0 -0.140625,0.15625 0,0.09375 0.09375,0.09375 0.15625,0.09375 0.328125,0.015625 0.4375,0.125 0.4375,0.296875 0,0.046875 0,0.09375 -0.03125,0.15625 l -0.75,3.046875 -1.765625,-3.625 c -0.0625,-0.125 -0.078125,-0.125 -0.25,-0.125 H 1.828125 c -0.125,0 -0.21875,0 -0.21875,0.15625 0,0.09375 0.078125,0.09375 0.234375,0.09375 0.140625,0 0.296875,0.015625 0.4375,0.046875 L 1.359375,-0.75 c -0.0625,0.265625 -0.1875,0.484375 -0.734375,0.5 -0.046875,0 -0.140625,0 -0.140625,0.140625 C 0.484375,-0.03125 0.53125,0 0.578125,0 0.8125,0 1.078125,-0.03125 1.3125,-0.03125 1.484375,-0.03125 1.875,0 2.046875,0 2.125,0 2.1875,-0.03125 2.1875,-0.140625 2.1875,-0.25 2.109375,-0.25 2.03125,-0.25 c -0.4375,-0.015625 -0.4375,-0.203125 -0.4375,-0.296875 0,-0.03125 0,-0.0625 0.015625,-0.171875 l 0.90625,-3.5625 2.03125,4.15625 C 4.59375,0 4.625,0 4.703125,0 4.8125,0 4.8125,-0.015625 4.84375,-0.140625 Z m 0,0"
               id="id-d98d6f69-aa51-42ab-9fc4-991aab5e15e0" />
          </g>
        </g>
        <g
           style="fill:#000000;fill-opacity:1"
           id="id-ff72ffcb-41c9-4fa7-8e0e-8d204d811b37">
          <g
             transform="translate(247.078,136.812)"
             id="g9665">
            <path
               style="stroke:none;stroke-width:0"
               d="m 2.703125,17.546875 h 0.6875 v -17.9375 H 0.0625 v 0.6875 h 2.640625 z m 0,0"
               id="id-0a30dbc2-3cba-465b-9cf7-35b56b5c3e26" />
          </g>
        </g>
        <g
           style="fill:#000000;fill-opacity:1"
           id="id-c267c3ab-dcf3-4ccc-a393-1aee85232f55">
          <g
             transform="translate(247.078,154.346)"
             id="g2555">
            <path
               style="stroke:none;stroke-width:0"
               d="m 2.703125,5.984375 h 0.6875 v -6 h -0.6875 z m 0,0"
               id="id-4d73ab61-dbe7-4f0a-a4f2-81d5939ebb37" />
          </g>
        </g>
        <g
           style="fill:#000000;fill-opacity:1"
           id="id-a6336648-56fb-4506-9865-58e19e79bb6b">
          <g
             transform="translate(247.078,160.324)"
             id="g5936">
            <path
               style="stroke:none;stroke-width:0"
               d="m 2.703125,5.984375 h 0.6875 v -6 h -0.6875 z m 0,0"
               id="id-75757c92-4429-4a22-8141-2febdeafd0ab" />
          </g>
        </g>
        <g
           style="fill:#000000;fill-opacity:1"
           id="id-4aa25609-668d-48f6-a1b2-e84fcaf882be">
          <g
             transform="translate(247.078,166.302)"
             id="g3348">
            <path
               style="stroke:none;stroke-width:0"
               d="m 2.703125,5.984375 h 0.6875 v -6 h -0.6875 z m 0,0"
               id="id-5d887666-648c-47bb-bee4-5755e010ac48" />
          </g>
        </g>
        <g
           style="fill:#000000;fill-opacity:1"
           id="id-86aacf1a-5755-491e-a55e-cf27e6639d5b">
          <g
             transform="translate(247.078,172.279)"
             id="g5799">
            <path
               style="stroke:none;stroke-width:0"
               d="m 2.703125,5.984375 h 0.6875 v -6 h -0.6875 z m 0,0"
               id="id-dde69ba1-ec19-465d-83de-cb8e98ca6704" />
          </g>
        </g>
        <g
           style="fill:#000000;fill-opacity:1"
           id="id-cf728817-3065-464c-bc00-c7e455f94dab">
          <g
             transform="translate(247.078,178.257)"
             id="g6916">
            <path
               style="stroke:none;stroke-width:0"
               d="m 2.703125,5.984375 h 0.6875 v -6 h -0.6875 z m 0,0"
               id="id-0b043da6-0a2e-4dd8-8050-35f1fd21ab2f" />
          </g>
        </g>
        <g
           style="fill:#000000;fill-opacity:1"
           id="id-774ac982-ce10-4e42-a407-007b8b53bb24">
          <g
             transform="translate(247.078,184.235)"
             id="g1013">
            <path
               style="stroke:none;stroke-width:0"
               d="m 2.703125,5.984375 h 0.6875 v -6 h -0.6875 z m 0,0"
               id="id-efb78e30-cca8-42ba-a371-a8ac9bdea58e" />
          </g>
        </g>
        <g
           style="fill:#000000;fill-opacity:1"
           id="id-3805a9c9-8a65-4672-8a0b-dab2bb0f341b">
          <g
             transform="translate(247.078,190.212)"
             id="g7614">
            <path
               style="stroke:none;stroke-width:0"
               d="m 2.703125,5.984375 h 0.6875 v -6 h -0.6875 z m 0,0"
               id="id-ca5c87bc-11e0-4140-8461-bba73aa0993e" />
          </g>
        </g>
        <g
           style="fill:#000000;fill-opacity:1"
           id="id-34df5275-a592-47a6-b491-fdc4fca16e6a">
          <g
             transform="translate(247.078,196.19)"
             id="g6800">
            <path
               style="stroke:none;stroke-width:0"
               d="m 2.703125,5.984375 h 0.6875 v -6 h -0.6875 z m 0,0"
               id="id-5d30a15d-27a7-4106-9e81-60178f1ed209" />
          </g>
        </g>
        <g
           style="fill:#000000;fill-opacity:1"
           id="id-26e1af53-c165-4324-936c-f22a80fa089b">
          <g
             transform="translate(247.078,202.566)"
             id="g4494">
            <path
               style="stroke:none;stroke-width:0"
               d="M 2.703125,16.84375 H 0.0625 v 0.6875 h 3.328125 v -17.9375 h -0.6875 z m 0,0"
               id="id-2cc4a519-e8b0-498a-af35-b3b9b5b347f1" />
          </g>
        </g>
        <g
           style="fill:#000000;fill-opacity:1"
           id="id-f1e90d84-109d-4ae4-9de9-878a23f613db">
          <g
             transform="translate(256.487,180.748)"
             id="g6487">
            <path
               style="stroke:none;stroke-width:0"
               d="m 6.84375,-3.265625 c 0.15625,0 0.34375,0 0.34375,-0.1875 C 7.1875,-3.65625 7,-3.65625 6.859375,-3.65625 h -5.96875 c -0.140625,0 -0.328125,0 -0.328125,0.203125 0,0.1875 0.1875,0.1875 0.328125,0.1875 z m 0.015625,1.9375 c 0.140625,0 0.328125,0 0.328125,-0.203125 0,-0.1875 -0.1875,-0.1875 -0.34375,-0.1875 H 0.890625 c -0.140625,0 -0.328125,0 -0.328125,0.1875 0,0.203125 0.1875,0.203125 0.328125,0.203125 z m 0,0"
               id="id-5890ccf8-5ce0-4df0-8bce-53e3454e2208" />
          </g>
        </g>
        <g
           style="fill:#000000;fill-opacity:1"
           id="id-6e6e2c35-a63a-4bd1-878b-8e5c6841a028">
          <g
             transform="translate(267.003,136.812)"
             id="g1930">
            <path
               style="stroke:none;stroke-width:0"
               d="m 3.25,17.546875 h 0.6875 v -17.25 h 2.625 v -0.6875 H 3.25 Z m 0,0"
               id="id-0949a0e9-044b-46a6-b66c-f2494c7da657" />
          </g>
        </g>
        <g
           style="fill:#000000;fill-opacity:1"
           id="id-6f98165e-2463-493a-b4ed-ba59a9841a2a">
          <g
             transform="translate(267.003,154.346)"
             id="g8181">
            <path
               style="stroke:none;stroke-width:0"
               d="m 3.25,5.984375 h 0.6875 v -6 H 3.25 Z m 0,0"
               id="id-84abfabc-4faa-4091-8302-a6ad9b059287" />
          </g>
        </g>
        <g
           style="fill:#000000;fill-opacity:1"
           id="id-0abd084c-6bcc-47d2-8e1c-7c8ea9d4c80e">
          <g
             transform="translate(267.003,160.324)"
             id="g3411">
            <path
               style="stroke:none;stroke-width:0"
               d="m 3.25,5.984375 h 0.6875 v -6 H 3.25 Z m 0,0"
               id="id-437f6885-ed81-4fad-b165-99fe66e8c22f" />
          </g>
        </g>
        <g
           style="fill:#000000;fill-opacity:1"
           id="id-a461dd4c-1b0f-4880-a2c4-5d27e1dc12aa">
          <g
             transform="translate(267.003,166.302)"
             id="g8222">
            <path
               style="stroke:none;stroke-width:0"
               d="m 3.25,5.984375 h 0.6875 v -6 H 3.25 Z m 0,0"
               id="id-5ea2f286-c599-40d5-9674-2326443d4f43" />
          </g>
        </g>
        <g
           style="fill:#000000;fill-opacity:1"
           id="id-2bede964-6ec1-4c01-8f04-0896b5eb704a">
          <g
             transform="translate(267.003,172.279)"
             id="g160">
            <path
               style="stroke:none;stroke-width:0"
               d="m 3.25,5.984375 h 0.6875 v -6 H 3.25 Z m 0,0"
               id="id-6885383f-60b8-48d8-b114-e9b5fd967539" />
          </g>
        </g>
        <g
           style="fill:#000000;fill-opacity:1"
           id="id-882bbdab-bb1b-4800-ae8f-df86b813518c">
          <g
             transform="translate(267.003,178.257)"
             id="g4509">
            <path
               style="stroke:none;stroke-width:0"
               d="m 3.25,5.984375 h 0.6875 v -6 H 3.25 Z m 0,0"
               id="id-28a8a58d-2abd-4d21-bae5-bc065ca8dbc2" />
          </g>
        </g>
        <g
           style="fill:#000000;fill-opacity:1"
           id="id-e73b3026-1508-416f-a8d8-3651abcf82ed">
          <g
             transform="translate(267.003,184.235)"
             id="g2661">
            <path
               style="stroke:none;stroke-width:0"
               d="m 3.25,5.984375 h 0.6875 v -6 H 3.25 Z m 0,0"
               id="id-623abb63-7d52-46ff-8275-2f9c5335c2c0" />
          </g>
        </g>
        <g
           style="fill:#000000;fill-opacity:1"
           id="id-71d47d6c-e023-46a4-9f58-be01015daf9f">
          <g
             transform="translate(267.003,190.212)"
             id="g7615">
            <path
               style="stroke:none;stroke-width:0"
               d="m 3.25,5.984375 h 0.6875 v -6 H 3.25 Z m 0,0"
               id="id-7bf50f4d-95ce-42e0-9aa1-204a08f7b10e" />
          </g>
        </g>
        <g
           style="fill:#000000;fill-opacity:1"
           id="id-8522be09-816f-4943-9140-5cb9c29a44b7">
          <g
             transform="translate(267.003,196.19)"
             id="g1424">
            <path
               style="stroke:none;stroke-width:0"
               d="m 3.25,5.984375 h 0.6875 v -6 H 3.25 Z m 0,0"
               id="id-6f4f111c-925f-4a46-ad04-93557c429d77" />
          </g>
        </g>
        <g
           style="fill:#000000;fill-opacity:1"
           id="id-282f1b86-e728-4e81-81b8-b8ae299d27d8">
          <g
             transform="translate(267.003,202.566)"
             id="g881">
            <path
               style="stroke:none;stroke-width:0"
               d="m 3.25,17.53125 h 3.3125 v -0.6875 h -2.625 v -17.25 H 3.25 Z m 0,0"
               id="id-55bd6785-ca22-499f-b6a2-5a9abf8a577b" />
          </g>
        </g>
        <g
           style="fill:#000000;fill-opacity:1"
           id="id-8b980191-669b-4b2f-a9cb-1dc3971cdc06">
          <g
             transform="translate(303.533,180.648)"
             id="g2809">
            <path
               style="stroke:none;stroke-width:0"
               d="m 1.578125,-0.78125 c -0.09375,0.390625 -0.109375,0.46875 -0.90625,0.46875 -0.15625,0 -0.265625,0 -0.265625,0.1875 C 0.40625,0 0.484375,0 0.671875,0 h 3.3125 c 2.0625,0 4.03125,-2.109375 4.03125,-4.28125 0,-1.40625 -0.84375,-2.53125 -2.34375,-2.53125 h -3.34375 c -0.1875,0 -0.296875,0 -0.296875,0.1875 0,0.125 0.078125,0.125 0.28125,0.125 0.125,0 0.3125,0.015625 0.421875,0.015625 0.171875,0.03125 0.21875,0.046875 0.21875,0.171875 0,0.03125 0,0.0625 -0.03125,0.1875 z M 3.734375,-6.125 C 3.828125,-6.46875 3.84375,-6.5 4.28125,-6.5 h 1.0625 c 0.96875,0 1.796875,0.53125 1.796875,1.84375 0,0.484375 -0.1875,2.125 -1.046875,3.21875 -0.28125,0.375 -1.0625,1.125 -2.296875,1.125 h -1.125 c -0.140625,0 -0.15625,0 -0.21875,0 -0.09375,-0.015625 -0.125,-0.03125 -0.125,-0.109375 0,-0.03125 0,-0.046875 0.046875,-0.21875 z m 0,0"
               id="id-14567a9d-2f25-44c5-ba68-943a99c6e442" />
          </g>
        </g>
        <g
           style="fill:#000000;fill-opacity:1"
           id="id-639bc422-6772-4f7c-b1fc-c55c55bf9685">
          <g
             transform="translate(311.781,182.142)"
             id="g7204">
            <path
               style="stroke:none;stroke-width:0"
               d="M 5.8125,-4 C 5.875,-4.265625 6,-4.5 6.546875,-4.515625 c 0.03125,0 0.140625,0 0.140625,-0.140625 0,-0.046875 -0.03125,-0.109375 -0.109375,-0.109375 -0.21875,0 -0.484375,0.03125 -0.71875,0.03125 -0.171875,0 -0.5625,-0.03125 -0.734375,-0.03125 -0.03125,0 -0.140625,0 -0.140625,0.15625 0,0.09375 0.09375,0.09375 0.15625,0.09375 0.328125,0.015625 0.4375,0.125 0.4375,0.296875 0,0.046875 0,0.09375 -0.03125,0.15625 l -0.75,3.046875 -1.765625,-3.625 c -0.0625,-0.125 -0.078125,-0.125 -0.25,-0.125 H 1.828125 c -0.125,0 -0.21875,0 -0.21875,0.15625 0,0.09375 0.078125,0.09375 0.234375,0.09375 0.140625,0 0.296875,0.015625 0.4375,0.046875 L 1.359375,-0.75 c -0.0625,0.265625 -0.1875,0.484375 -0.734375,0.5 -0.046875,0 -0.140625,0 -0.140625,0.140625 C 0.484375,-0.03125 0.53125,0 0.578125,0 0.8125,0 1.078125,-0.03125 1.3125,-0.03125 1.484375,-0.03125 1.875,0 2.046875,0 2.125,0 2.1875,-0.03125 2.1875,-0.140625 2.1875,-0.25 2.109375,-0.25 2.03125,-0.25 c -0.4375,-0.015625 -0.4375,-0.203125 -0.4375,-0.296875 0,-0.03125 0,-0.0625 0.015625,-0.171875 l 0.90625,-3.5625 2.03125,4.15625 C 4.59375,0 4.625,0 4.703125,0 4.8125,0 4.8125,-0.015625 4.84375,-0.140625 Z m 0,0"
               id="id-1431602b-7b2e-4cd3-8666-2674de50348a" />
          </g>
        </g>
        <g
           style="fill:#000000;fill-opacity:1"
           id="id-cfa7b0cf-c7c8-485b-b162-66056a8d6cc7">
          <g
             transform="translate(349.226,136.812)"
             id="g4433">
            <path
               style="stroke:none;stroke-width:0"
               d="m 2.703125,17.546875 h 0.6875 v -17.9375 H 0.0625 v 0.6875 h 2.640625 z m 0,0"
               id="id-71b04fef-de28-4791-873c-d0f917a7e030" />
          </g>
        </g>
        <g
           style="fill:#000000;fill-opacity:1"
           id="id-e0d90599-861d-41ae-8ab0-2b2480493c4e">
          <g
             transform="translate(349.226,154.346)"
             id="g8592">
            <path
               style="stroke:none;stroke-width:0"
               d="m 2.703125,5.984375 h 0.6875 v -6 h -0.6875 z m 0,0"
               id="id-60d34552-d07a-4ad8-ae9e-d449d8c40853" />
          </g>
        </g>
        <g
           style="fill:#000000;fill-opacity:1"
           id="id-d82a0d3d-a0b7-4a71-a6b9-33c3e3a58e0d">
          <g
             transform="translate(349.226,160.324)"
             id="g5602">
            <path
               style="stroke:none;stroke-width:0"
               d="m 2.703125,5.984375 h 0.6875 v -6 h -0.6875 z m 0,0"
               id="id-a5cccbb3-153d-4684-8624-43bd64a76115" />
          </g>
        </g>
        <g
           style="fill:#000000;fill-opacity:1"
           id="id-71cf8c6c-e51d-4225-8411-67f09cf63a1c">
          <g
             transform="translate(349.226,166.302)"
             id="g2225">
            <path
               style="stroke:none;stroke-width:0"
               d="m 2.703125,5.984375 h 0.6875 v -6 h -0.6875 z m 0,0"
               id="id-974dbd2d-2d94-4453-b9a3-9c2821d940f6" />
          </g>
        </g>
        <g
           style="fill:#000000;fill-opacity:1"
           id="id-9416fdca-9210-4650-a9f7-100d6cbe204c">
          <g
             transform="translate(349.226,172.279)"
             id="g4684">
            <path
               style="stroke:none;stroke-width:0"
               d="m 2.703125,5.984375 h 0.6875 v -6 h -0.6875 z m 0,0"
               id="id-312736fe-143e-4adb-9955-a9f11cafefdb" />
          </g>
        </g>
        <g
           style="fill:#000000;fill-opacity:1"
           id="id-68ee04d4-590c-4bbc-affa-3b8caa763bc7">
          <g
             transform="translate(349.226,178.257)"
             id="g98">
            <path
               style="stroke:none;stroke-width:0"
               d="m 2.703125,5.984375 h 0.6875 v -6 h -0.6875 z m 0,0"
               id="id-b7e9a3a5-03d6-4e55-8202-6a96d50dcbdb" />
          </g>
        </g>
        <g
           style="fill:#000000;fill-opacity:1"
           id="id-5ab9b796-f1a5-4a1a-9f49-ab2ab19d9e28">
          <g
             transform="translate(349.226,184.235)"
             id="g9860">
            <path
               style="stroke:none;stroke-width:0"
               d="m 2.703125,5.984375 h 0.6875 v -6 h -0.6875 z m 0,0"
               id="id-19432d82-a483-457a-85ea-55a43258ad3e" />
          </g>
        </g>
        <g
           style="fill:#000000;fill-opacity:1"
           id="id-dfe3eefa-44b2-4df5-aa90-744a6f32a1ac">
          <g
             transform="translate(349.226,190.212)"
             id="g9011">
            <path
               style="stroke:none;stroke-width:0"
               d="m 2.703125,5.984375 h 0.6875 v -6 h -0.6875 z m 0,0"
               id="id-2585a5bd-e481-47b1-ae2b-4f00258224cb" />
          </g>
        </g>
        <g
           style="fill:#000000;fill-opacity:1"
           id="id-2f5e9363-a2f8-4458-b811-3857aeb52964">
          <g
             transform="translate(349.226,196.19)"
             id="g3963">
            <path
               style="stroke:none;stroke-width:0"
               d="m 2.703125,5.984375 h 0.6875 v -6 h -0.6875 z m 0,0"
               id="id-7fd786f8-5457-4fd6-9d7e-4839ac63d8ad" />
          </g>
        </g>
        <g
           style="fill:#000000;fill-opacity:1"
           id="id-678280d6-6d5c-4fbd-bc9b-d24d30d55f55">
          <g
             transform="translate(349.226,202.566)"
             id="g8322">
            <path
               style="stroke:none;stroke-width:0"
               d="M 2.703125,16.84375 H 0.0625 v 0.6875 h 3.328125 v -17.9375 h -0.6875 z m 0,0"
               id="id-413d5601-fb4f-4f5f-abb1-78430f55f09e" />
          </g>
        </g>
        <g
           style="fill:#000000;fill-opacity:1"
           id="id-e94856e4-eb8a-4248-8d09-6ebd08fe7939">
          <g
             transform="translate(357.528,136.812)"
             id="g265">
            <path
               style="stroke:none;stroke-width:0"
               d="m 3.25,17.546875 h 0.6875 v -17.25 h 2.625 v -0.6875 H 3.25 Z m 0,0"
               id="id-7c4dade7-1527-4408-8674-7ca5e5c5012a" />
          </g>
        </g>
        <g
           style="fill:#000000;fill-opacity:1"
           id="id-0a0278d5-aefd-4ec3-bcc2-5281b361435e">
          <g
             transform="translate(357.528,154.346)"
             id="g1118">
            <path
               style="stroke:none;stroke-width:0"
               d="m 3.25,5.984375 h 0.6875 v -6 H 3.25 Z m 0,0"
               id="id-f678699c-987a-464e-8faf-750200640b55" />
          </g>
        </g>
        <g
           style="fill:#000000;fill-opacity:1"
           id="id-bebc71e4-0518-4883-9382-f7cd123b26d1">
          <g
             transform="translate(357.528,160.324)"
             id="g5557">
            <path
               style="stroke:none;stroke-width:0"
               d="m 3.25,5.984375 h 0.6875 v -6 H 3.25 Z m 0,0"
               id="id-568f0143-3a91-4962-ac47-636677132f44" />
          </g>
        </g>
        <g
           style="fill:#000000;fill-opacity:1"
           id="id-37454aae-31fe-49a3-8a8b-d8beec8c365e">
          <g
             transform="translate(357.528,166.302)"
             id="g5127">
            <path
               style="stroke:none;stroke-width:0"
               d="m 3.25,5.984375 h 0.6875 v -6 H 3.25 Z m 0,0"
               id="id-4656f13b-0fd8-4171-8110-fa2e5f64e599" />
          </g>
        </g>
        <g
           style="fill:#000000;fill-opacity:1"
           id="id-eda41c05-3072-403e-bbc2-3a46c5ba57ce">
          <g
             transform="translate(357.528,172.279)"
             id="g2089">
            <path
               style="stroke:none;stroke-width:0"
               d="m 3.25,5.984375 h 0.6875 v -6 H 3.25 Z m 0,0"
               id="id-4286d46f-edd3-4f11-bc52-ca829dfce756" />
          </g>
        </g>
        <g
           style="fill:#000000;fill-opacity:1"
           id="id-e76a5dbc-e4c0-4a82-b413-7c7f864fa082">
          <g
             transform="translate(357.528,178.257)"
             id="g5171">
            <path
               style="stroke:none;stroke-width:0"
               d="m 3.25,5.984375 h 0.6875 v -6 H 3.25 Z m 0,0"
               id="id-710c3f52-7825-4ad2-88f2-322a1d05f84f" />
          </g>
        </g>
        <g
           style="fill:#000000;fill-opacity:1"
           id="id-5e360cf1-90b8-43b2-a04d-34ecf23b7529">
          <g
             transform="translate(357.528,184.235)"
             id="g5812">
            <path
               style="stroke:none;stroke-width:0"
               d="m 3.25,5.984375 h 0.6875 v -6 H 3.25 Z m 0,0"
               id="id-8843ece0-3ae3-4ca9-bf83-b010ee7b3a9f" />
          </g>
        </g>
        <g
           style="fill:#000000;fill-opacity:1"
           id="id-889d1147-7a41-4d6f-b8bb-555f1dce8b47">
          <g
             transform="translate(357.528,190.212)"
             id="g2159">
            <path
               style="stroke:none;stroke-width:0"
               d="m 3.25,5.984375 h 0.6875 v -6 H 3.25 Z m 0,0"
               id="id-d1456b3d-eca6-4438-b972-4e09747b6110" />
          </g>
        </g>
        <g
           style="fill:#000000;fill-opacity:1"
           id="id-e34b9c6e-4b5f-4b19-b46a-57252dc0b40a">
          <g
             transform="translate(357.528,196.19)"
             id="g5929">
            <path
               style="stroke:none;stroke-width:0"
               d="m 3.25,5.984375 h 0.6875 v -6 H 3.25 Z m 0,0"
               id="id-e483f934-ef70-457e-9163-2d48abdc35bf" />
          </g>
        </g>
        <g
           style="fill:#000000;fill-opacity:1"
           id="id-22000a08-fe63-4c05-b957-d5c1c27d5fa4">
          <g
             transform="translate(357.528,202.566)"
             id="g3625">
            <path
               style="stroke:none;stroke-width:0"
               d="m 3.25,17.53125 h 3.3125 v -0.6875 h -2.625 v -17.25 H 3.25 Z m 0,0"
               id="id-a5575282-34e1-4a1d-8adb-cead6e88b57b" />
          </g>
        </g>
        <g
           style="fill:#000000;fill-opacity:1"
           id="id-aac58cac-9c70-43e9-b3a8-168b91893451">
          <g
             transform="translate(371.191,144.129)"
             id="g2461">
            <path
               style="stroke:none;stroke-width:0"
               d="M 4.140625,-6.515625 3.984375,-6.65625 c 0,0 -0.375,0.46875 -0.8125,0.46875 -0.234375,0 -0.484375,-0.140625 -0.65625,-0.25 C 2.25,-6.59375 2.078125,-6.65625 1.90625,-6.65625 c -0.375,0 -0.578125,0.21875 -1.078125,0.78125 l 0.15625,0.140625 c 0,0 0.375,-0.46875 0.8125,-0.46875 0.234375,0 0.484375,0.140625 0.65625,0.234375 0.265625,0.171875 0.453125,0.234375 0.625,0.234375 0.375,0 0.5625,-0.21875 1.0625,-0.78125 z m 0,0"
               id="id-27b3e648-0edc-49da-9141-db90d022110c" />
          </g>
        </g>
        <g
           style="fill:#000000;fill-opacity:1"
           id="id-797db3ec-ea6d-4dea-90e0-a2cb21bb2382">
          <g
             transform="translate(370.812,144.129)"
             id="g9171">
            <path
               style="stroke:none;stroke-width:0"
               d="m 4.671875,-3.703125 c 0,-0.546875 -0.265625,-0.703125 -0.4375,-0.703125 -0.25,0 -0.5,0.265625 -0.5,0.484375 0,0.125 0.046875,0.1875 0.15625,0.296875 0.21875,0.203125 0.34375,0.453125 0.34375,0.8125 0,0.421875 -0.609375,2.703125 -1.765625,2.703125 -0.515625,0 -0.75,-0.34375 -0.75,-0.875 0,-0.546875 0.28125,-1.28125 0.578125,-2.109375 0.078125,-0.171875 0.125,-0.3125 0.125,-0.5 0,-0.4375 -0.3125,-0.8125 -0.8125,-0.8125 -0.9375,0 -1.3125,1.453125 -1.3125,1.53125 0,0.109375 0.09375,0.109375 0.109375,0.109375 0.109375,0 0.109375,-0.03125 0.15625,-0.1875 0.296875,-1 0.71875,-1.234375 1.015625,-1.234375 0.078125,0 0.25,0 0.25,0.3125 0,0.25 -0.109375,0.53125 -0.171875,0.703125 -0.4375,1.15625 -0.5625,1.609375 -0.5625,2.046875 0,1.078125 0.875,1.234375 1.328125,1.234375 1.671875,0 2.25,-3.296875 2.25,-3.8125 z m 0,0"
               id="id-3a0dab5a-77f4-45f3-9ef8-82dbaf3e2c34" />
          </g>
        </g>
        <g
           style="fill:#000000;fill-opacity:1"
           id="id-289e04a0-d6e4-46fe-a1fd-68dc09f2a1df">
          <g
             transform="translate(375.641,145.624)"
             id="g6304">
            <path
               style="stroke:none;stroke-width:0"
               d="M 3.59375,-2.21875 C 3.59375,-2.984375 3.5,-3.546875 3.1875,-4.03125 2.96875,-4.34375 2.53125,-4.625 1.984375,-4.625 c -1.625,0 -1.625,1.90625 -1.625,2.40625 0,0.5 0,2.359375 1.625,2.359375 1.609375,0 1.609375,-1.859375 1.609375,-2.359375 z M 1.984375,-0.0625 c -0.328125,0 -0.75,-0.1875 -0.890625,-0.75 C 1,-1.21875 1,-1.796875 1,-2.3125 1,-2.828125 1,-3.359375 1.09375,-3.734375 1.25,-4.28125 1.6875,-4.4375 1.984375,-4.4375 c 0.375,0 0.734375,0.234375 0.859375,0.640625 0.109375,0.375 0.125,0.875 0.125,1.484375 0,0.515625 0,1.03125 -0.09375,1.46875 -0.140625,0.640625 -0.609375,0.78125 -0.890625,0.78125 z m 0,0"
               id="id-65e87ff9-05f6-4c1d-a1b7-61ef4878a789" />
          </g>
        </g>
        <g
           style="fill:#000000;fill-opacity:1"
           id="id-0cf76cbb-ff1b-4a87-aeb9-c26c84a105f3">
          <g
             transform="translate(371.191,156.084)"
             id="g6508">
            <path
               style="stroke:none;stroke-width:0"
               d="M 4.140625,-6.515625 3.984375,-6.65625 c 0,0 -0.375,0.46875 -0.8125,0.46875 -0.234375,0 -0.484375,-0.140625 -0.65625,-0.25 C 2.25,-6.59375 2.078125,-6.65625 1.90625,-6.65625 c -0.375,0 -0.578125,0.21875 -1.078125,0.78125 l 0.15625,0.140625 c 0,0 0.375,-0.46875 0.8125,-0.46875 0.234375,0 0.484375,0.140625 0.65625,0.234375 0.265625,0.171875 0.453125,0.234375 0.625,0.234375 0.375,0 0.5625,-0.21875 1.0625,-0.78125 z m 0,0"
               id="id-f9e68420-6745-4fea-8d8c-3068105d0f54" />
          </g>
        </g>
        <g
           style="fill:#000000;fill-opacity:1"
           id="id-2517a7c8-ee66-4222-a7d7-11f1e4be1f59">
          <g
             transform="translate(370.812,156.084)"
             id="g7087">
            <path
               style="stroke:none;stroke-width:0"
               d="m 4.671875,-3.703125 c 0,-0.546875 -0.265625,-0.703125 -0.4375,-0.703125 -0.25,0 -0.5,0.265625 -0.5,0.484375 0,0.125 0.046875,0.1875 0.15625,0.296875 0.21875,0.203125 0.34375,0.453125 0.34375,0.8125 0,0.421875 -0.609375,2.703125 -1.765625,2.703125 -0.515625,0 -0.75,-0.34375 -0.75,-0.875 0,-0.546875 0.28125,-1.28125 0.578125,-2.109375 0.078125,-0.171875 0.125,-0.3125 0.125,-0.5 0,-0.4375 -0.3125,-0.8125 -0.8125,-0.8125 -0.9375,0 -1.3125,1.453125 -1.3125,1.53125 0,0.109375 0.09375,0.109375 0.109375,0.109375 0.109375,0 0.109375,-0.03125 0.15625,-0.1875 0.296875,-1 0.71875,-1.234375 1.015625,-1.234375 0.078125,0 0.25,0 0.25,0.3125 0,0.25 -0.109375,0.53125 -0.171875,0.703125 -0.4375,1.15625 -0.5625,1.609375 -0.5625,2.046875 0,1.078125 0.875,1.234375 1.328125,1.234375 1.671875,0 2.25,-3.296875 2.25,-3.8125 z m 0,0"
               id="id-4caad676-22b5-4db0-8392-218b4c28013f" />
          </g>
        </g>
        <g
           style="fill:#000000;fill-opacity:1"
           id="id-227a8b23-3797-434a-84c2-92d19c24e3e2">
          <g
             transform="translate(375.641,157.579)"
             id="g6914">
            <path
               style="stroke:none;stroke-width:0"
               d="m 2.328125,-4.4375 c 0,-0.1875 0,-0.1875 -0.203125,-0.1875 -0.453125,0.4375 -1.078125,0.4375 -1.359375,0.4375 v 0.25 c 0.15625,0 0.625,0 1,-0.1875 v 3.546875 c 0,0.234375 0,0.328125 -0.6875,0.328125 H 0.8125 V 0 c 0.125,0 0.984375,-0.03125 1.234375,-0.03125 0.21875,0 1.09375,0.03125 1.25,0.03125 V -0.25 H 3.03125 c -0.703125,0 -0.703125,-0.09375 -0.703125,-0.328125 z m 0,0"
               id="id-eaa7248f-fde7-4faf-8b6a-fb66f6417f4e" />
          </g>
        </g>
        <g
           style="fill:#000000;fill-opacity:1"
           id="id-038e15c9-bafd-4994-94e5-e8e8846b6d69">
          <g
             transform="translate(374.078,166.7)"
             id="g8416">
            <path
               style="stroke:none;stroke-width:0"
               d="m 1.90625,-0.53125 c 0,-0.28125 -0.234375,-0.53125 -0.515625,-0.53125 -0.296875,0 -0.53125,0.25 -0.53125,0.53125 C 0.859375,-0.234375 1.09375,0 1.390625,0 1.671875,0 1.90625,-0.234375 1.90625,-0.53125 Z m 0,0"
               id="id-c353cada-ae5c-4572-99da-40d74ba606e0" />
          </g>
        </g>
        <g
           style="fill:#000000;fill-opacity:1"
           id="id-453fcf1d-3d3f-4a29-a3b7-7a43439926ea">
          <g
             transform="translate(374.078,170.685)"
             id="g8382">
            <path
               style="stroke:none;stroke-width:0"
               d="m 1.90625,-0.53125 c 0,-0.28125 -0.234375,-0.53125 -0.515625,-0.53125 -0.296875,0 -0.53125,0.25 -0.53125,0.53125 C 0.859375,-0.234375 1.09375,0 1.390625,0 1.671875,0 1.90625,-0.234375 1.90625,-0.53125 Z m 0,0"
               id="id-92f58c72-8093-4f70-baaf-b44e205d6e45" />
          </g>
        </g>
        <g
           style="fill:#000000;fill-opacity:1"
           id="id-c187214b-7b8a-40c1-bcf8-254f86055e46">
          <g
             transform="translate(374.078,174.67)"
             id="g8275">
            <path
               style="stroke:none;stroke-width:0"
               d="m 1.90625,-0.53125 c 0,-0.28125 -0.234375,-0.53125 -0.515625,-0.53125 -0.296875,0 -0.53125,0.25 -0.53125,0.53125 C 0.859375,-0.234375 1.09375,0 1.390625,0 1.671875,0 1.90625,-0.234375 1.90625,-0.53125 Z m 0,0"
               id="id-9b806817-1ea2-44da-ae6d-7c164cc7044d" />
          </g>
        </g>
        <g
           style="fill:#000000;fill-opacity:1"
           id="id-b251ef9e-0c73-4982-a55f-021562829ba4">
          <g
             transform="translate(374.078,185.286)"
             id="g5617">
            <path
               style="stroke:none;stroke-width:0"
               d="m 1.90625,-0.53125 c 0,-0.28125 -0.234375,-0.53125 -0.515625,-0.53125 -0.296875,0 -0.53125,0.25 -0.53125,0.53125 C 0.859375,-0.234375 1.09375,0 1.390625,0 1.671875,0 1.90625,-0.234375 1.90625,-0.53125 Z m 0,0"
               id="id-49e4c323-86b9-46c8-8375-b743672c5540" />
          </g>
        </g>
        <g
           style="fill:#000000;fill-opacity:1"
           id="id-393819e2-fe43-4d20-9ec5-afd12db4187f">
          <g
             transform="translate(374.078,189.271)"
             id="g6923">
            <path
               style="stroke:none;stroke-width:0"
               d="m 1.90625,-0.53125 c 0,-0.28125 -0.234375,-0.53125 -0.515625,-0.53125 -0.296875,0 -0.53125,0.25 -0.53125,0.53125 C 0.859375,-0.234375 1.09375,0 1.390625,0 1.671875,0 1.90625,-0.234375 1.90625,-0.53125 Z m 0,0"
               id="id-5963f5cc-e222-4183-a153-0aa016aeeacb" />
          </g>
        </g>
        <g
           style="fill:#000000;fill-opacity:1"
           id="id-c91be377-aa78-4657-8dc1-2791f3c810ac">
          <g
             transform="translate(374.078,193.256)"
             id="g3392">
            <path
               style="stroke:none;stroke-width:0"
               d="m 1.90625,-0.53125 c 0,-0.28125 -0.234375,-0.53125 -0.515625,-0.53125 -0.296875,0 -0.53125,0.25 -0.53125,0.53125 C 0.859375,-0.234375 1.09375,0 1.390625,0 1.671875,0 1.90625,-0.234375 1.90625,-0.53125 Z m 0,0"
               id="id-a1be3803-764c-4ed5-a726-85557f36778c" />
          </g>
        </g>
        <g
           style="fill:#000000;fill-opacity:1"
           id="id-d2d5132d-9780-4a1e-8b80-f88d1c1c9ace">
          <g
             transform="translate(364.549,205.211)"
             id="g1493">
            <path
               style="stroke:none;stroke-width:0"
               d="M 4.140625,-6.515625 3.984375,-6.65625 c 0,0 -0.375,0.46875 -0.8125,0.46875 -0.234375,0 -0.484375,-0.140625 -0.65625,-0.25 C 2.25,-6.59375 2.078125,-6.65625 1.90625,-6.65625 c -0.375,0 -0.578125,0.21875 -1.078125,0.78125 l 0.15625,0.140625 c 0,0 0.375,-0.46875 0.8125,-0.46875 0.234375,0 0.484375,0.140625 0.65625,0.234375 0.265625,0.171875 0.453125,0.234375 0.625,0.234375 0.375,0 0.5625,-0.21875 1.0625,-0.78125 z m 0,0"
               id="id-e3f1e1ce-b963-43b2-890c-95c759f5f03a" />
          </g>
        </g>
        <g
           style="fill:#000000;fill-opacity:1"
           id="id-4aa23d37-4c85-4e21-9c5b-6be7991eda77">
          <g
             transform="translate(364.17,205.211)"
             id="g6821">
            <path
               style="stroke:none;stroke-width:0"
               d="m 4.671875,-3.703125 c 0,-0.546875 -0.265625,-0.703125 -0.4375,-0.703125 -0.25,0 -0.5,0.265625 -0.5,0.484375 0,0.125 0.046875,0.1875 0.15625,0.296875 0.21875,0.203125 0.34375,0.453125 0.34375,0.8125 0,0.421875 -0.609375,2.703125 -1.765625,2.703125 -0.515625,0 -0.75,-0.34375 -0.75,-0.875 0,-0.546875 0.28125,-1.28125 0.578125,-2.109375 0.078125,-0.171875 0.125,-0.3125 0.125,-0.5 0,-0.4375 -0.3125,-0.8125 -0.8125,-0.8125 -0.9375,0 -1.3125,1.453125 -1.3125,1.53125 0,0.109375 0.09375,0.109375 0.109375,0.109375 0.109375,0 0.109375,-0.03125 0.15625,-0.1875 0.296875,-1 0.71875,-1.234375 1.015625,-1.234375 0.078125,0 0.25,0 0.25,0.3125 0,0.25 -0.109375,0.53125 -0.171875,0.703125 -0.4375,1.15625 -0.5625,1.609375 -0.5625,2.046875 0,1.078125 0.875,1.234375 1.328125,1.234375 1.671875,0 2.25,-3.296875 2.25,-3.8125 z m 0,0"
               id="id-9941125d-0cf1-41bd-991d-9f6ac422b8e4" />
          </g>
        </g>
        <g
           style="fill:#000000;fill-opacity:1"
           id="id-02ae19a8-5e0b-4fc3-b98f-7dc911743f63">
          <g
             transform="translate(368.999,206.706)"
             id="g4071">
            <path
               style="stroke:none;stroke-width:0"
               d="M 5.8125,-4 C 5.875,-4.265625 6,-4.5 6.546875,-4.515625 c 0.03125,0 0.140625,0 0.140625,-0.140625 0,-0.046875 -0.03125,-0.109375 -0.109375,-0.109375 -0.21875,0 -0.484375,0.03125 -0.71875,0.03125 -0.171875,0 -0.5625,-0.03125 -0.734375,-0.03125 -0.03125,0 -0.140625,0 -0.140625,0.15625 0,0.09375 0.09375,0.09375 0.15625,0.09375 0.328125,0.015625 0.4375,0.125 0.4375,0.296875 0,0.046875 0,0.09375 -0.03125,0.15625 l -0.75,3.046875 -1.765625,-3.625 c -0.0625,-0.125 -0.078125,-0.125 -0.25,-0.125 H 1.828125 c -0.125,0 -0.21875,0 -0.21875,0.15625 0,0.09375 0.078125,0.09375 0.234375,0.09375 0.140625,0 0.296875,0.015625 0.4375,0.046875 L 1.359375,-0.75 c -0.0625,0.265625 -0.1875,0.484375 -0.734375,0.5 -0.046875,0 -0.140625,0 -0.140625,0.140625 C 0.484375,-0.03125 0.53125,0 0.578125,0 0.8125,0 1.078125,-0.03125 1.3125,-0.03125 1.484375,-0.03125 1.875,0 2.046875,0 2.125,0 2.1875,-0.03125 2.1875,-0.140625 2.1875,-0.25 2.109375,-0.25 2.03125,-0.25 c -0.4375,-0.015625 -0.4375,-0.203125 -0.4375,-0.296875 0,-0.03125 0,-0.0625 0.015625,-0.171875 l 0.90625,-3.5625 2.03125,4.15625 C 4.59375,0 4.625,0 4.703125,0 4.8125,0 4.8125,-0.015625 4.84375,-0.140625 Z m 0,0"
               id="id-635d95ec-64f1-44e3-a52a-d2046d1ded24" />
          </g>
        </g>
        <g
           style="fill:#000000;fill-opacity:1"
           id="id-25864e8f-182c-486f-86a7-a4abd2a31e43">
          <g
             transform="translate(376.057,206.706)"
             id="g6717">
            <path
               style="stroke:none;stroke-width:0"
               d="m 5.1875,-1.578125 c 0.109375,0 0.28125,0 0.28125,-0.15625 0,-0.1875 -0.171875,-0.1875 -0.28125,-0.1875 H 1.03125 c -0.109375,0 -0.28125,0 -0.28125,0.171875 0,0.171875 0.15625,0.171875 0.28125,0.171875 z m 0,0"
               id="id-4c4e727e-684e-4d68-af00-e57cafccc283" />
          </g>
        </g>
        <g
           style="fill:#000000;fill-opacity:1"
           id="id-6b65b597-2e1a-41a5-9e57-62a68fac676c">
          <g
             transform="translate(382.284,206.706)"
             id="g4083">
            <path
               style="stroke:none;stroke-width:0"
               d="m 2.328125,-4.4375 c 0,-0.1875 0,-0.1875 -0.203125,-0.1875 -0.453125,0.4375 -1.078125,0.4375 -1.359375,0.4375 v 0.25 c 0.15625,0 0.625,0 1,-0.1875 v 3.546875 c 0,0.234375 0,0.328125 -0.6875,0.328125 H 0.8125 V 0 c 0.125,0 0.984375,-0.03125 1.234375,-0.03125 0.21875,0 1.09375,0.03125 1.25,0.03125 V -0.25 H 3.03125 c -0.703125,0 -0.703125,-0.09375 -0.703125,-0.328125 z m 0,0"
               id="id-6e8f59d7-9656-47c5-b736-9203789eb18d" />
          </g>
        </g>
        <g
           style="fill:#000000;fill-opacity:1"
           id="id-f407872f-0c53-48b6-9426-00c76fb6d70d">
          <g
             transform="translate(369.648,217.167)"
             id="g3884">
            <path
               style="stroke:none;stroke-width:0"
               d="M 4.140625,-6.515625 3.984375,-6.65625 c 0,0 -0.375,0.46875 -0.8125,0.46875 -0.234375,0 -0.484375,-0.140625 -0.65625,-0.25 C 2.25,-6.59375 2.078125,-6.65625 1.90625,-6.65625 c -0.375,0 -0.578125,0.21875 -1.078125,0.78125 l 0.15625,0.140625 c 0,0 0.375,-0.46875 0.8125,-0.46875 0.234375,0 0.484375,0.140625 0.65625,0.234375 0.265625,0.171875 0.453125,0.234375 0.625,0.234375 0.375,0 0.5625,-0.21875 1.0625,-0.78125 z m 0,0"
               id="id-4a1d9d37-df98-4a0e-9913-de21c3039c16" />
          </g>
        </g>
        <g
           style="fill:#000000;fill-opacity:1"
           id="id-009ffe65-2f9b-48c0-a146-a349f1b1fa8d">
          <g
             transform="translate(369.269,217.167)"
             id="g5146">
            <path
               style="stroke:none;stroke-width:0"
               d="m 4.671875,-3.703125 c 0,-0.546875 -0.265625,-0.703125 -0.4375,-0.703125 -0.25,0 -0.5,0.265625 -0.5,0.484375 0,0.125 0.046875,0.1875 0.15625,0.296875 0.21875,0.203125 0.34375,0.453125 0.34375,0.8125 0,0.421875 -0.609375,2.703125 -1.765625,2.703125 -0.515625,0 -0.75,-0.34375 -0.75,-0.875 0,-0.546875 0.28125,-1.28125 0.578125,-2.109375 0.078125,-0.171875 0.125,-0.3125 0.125,-0.5 0,-0.4375 -0.3125,-0.8125 -0.8125,-0.8125 -0.9375,0 -1.3125,1.453125 -1.3125,1.53125 0,0.109375 0.09375,0.109375 0.109375,0.109375 0.109375,0 0.109375,-0.03125 0.15625,-0.1875 0.296875,-1 0.71875,-1.234375 1.015625,-1.234375 0.078125,0 0.25,0 0.25,0.3125 0,0.25 -0.109375,0.53125 -0.171875,0.703125 -0.4375,1.15625 -0.5625,1.609375 -0.5625,2.046875 0,1.078125 0.875,1.234375 1.328125,1.234375 1.671875,0 2.25,-3.296875 2.25,-3.8125 z m 0,0"
               id="id-94d891c9-460d-4258-b5e4-069be9097af6" />
          </g>
        </g>
        <g
           style="fill:#000000;fill-opacity:1"
           id="id-f2c9ba31-4f65-423c-a083-2675d4470d27">
          <g
             transform="translate(374.098,218.661)"
             id="g8364">
            <path
               style="stroke:none;stroke-width:0"
               d="M 5.8125,-4 C 5.875,-4.265625 6,-4.5 6.546875,-4.515625 c 0.03125,0 0.140625,0 0.140625,-0.140625 0,-0.046875 -0.03125,-0.109375 -0.109375,-0.109375 -0.21875,0 -0.484375,0.03125 -0.71875,0.03125 -0.171875,0 -0.5625,-0.03125 -0.734375,-0.03125 -0.03125,0 -0.140625,0 -0.140625,0.15625 0,0.09375 0.09375,0.09375 0.15625,0.09375 0.328125,0.015625 0.4375,0.125 0.4375,0.296875 0,0.046875 0,0.09375 -0.03125,0.15625 l -0.75,3.046875 -1.765625,-3.625 c -0.0625,-0.125 -0.078125,-0.125 -0.25,-0.125 H 1.828125 c -0.125,0 -0.21875,0 -0.21875,0.15625 0,0.09375 0.078125,0.09375 0.234375,0.09375 0.140625,0 0.296875,0.015625 0.4375,0.046875 L 1.359375,-0.75 c -0.0625,0.265625 -0.1875,0.484375 -0.734375,0.5 -0.046875,0 -0.140625,0 -0.140625,0.140625 C 0.484375,-0.03125 0.53125,0 0.578125,0 0.8125,0 1.078125,-0.03125 1.3125,-0.03125 1.484375,-0.03125 1.875,0 2.046875,0 2.125,0 2.1875,-0.03125 2.1875,-0.140625 2.1875,-0.25 2.109375,-0.25 2.03125,-0.25 c -0.4375,-0.015625 -0.4375,-0.203125 -0.4375,-0.296875 0,-0.03125 0,-0.0625 0.015625,-0.171875 l 0.90625,-3.5625 2.03125,4.15625 C 4.59375,0 4.625,0 4.703125,0 4.8125,0 4.8125,-0.015625 4.84375,-0.140625 Z m 0,0"
               id="id-5eec9717-4a31-452a-829c-dc5f5b80813b" />
          </g>
        </g>
        <g
           style="fill:#000000;fill-opacity:1"
           id="id-9f26296b-e347-46a9-b1ec-a344fda56a79">
          <g
             transform="translate(386.753,136.812)"
             id="g2705">
            <path
               style="stroke:none;stroke-width:0"
               d="m 2.703125,17.546875 h 0.6875 v -17.9375 H 0.0625 v 0.6875 h 2.640625 z m 0,0"
               id="id-d25c484e-6394-4fad-8809-99c26963f9f9" />
          </g>
        </g>
        <g
           style="fill:#000000;fill-opacity:1"
           id="id-50383416-d78d-4a31-aa2f-8cfafbce6ece">
          <g
             transform="translate(386.753,154.346)"
             id="g6398">
            <path
               style="stroke:none;stroke-width:0"
               d="m 2.703125,5.984375 h 0.6875 v -6 h -0.6875 z m 0,0"
               id="id-38db7d3a-4eb4-4bb2-8947-90907aa73209" />
          </g>
        </g>
        <g
           style="fill:#000000;fill-opacity:1"
           id="id-ba9fd7bd-6071-47c1-a1b0-1319575ff182">
          <g
             transform="translate(386.753,160.324)"
             id="g5875">
            <path
               style="stroke:none;stroke-width:0"
               d="m 2.703125,5.984375 h 0.6875 v -6 h -0.6875 z m 0,0"
               id="id-67dac048-2516-4ad8-91e7-e0de90fc8777" />
          </g>
        </g>
        <g
           style="fill:#000000;fill-opacity:1"
           id="id-daecce0d-790e-4aa3-bf59-ab65ce953bdf">
          <g
             transform="translate(386.753,166.302)"
             id="g866">
            <path
               style="stroke:none;stroke-width:0"
               d="m 2.703125,5.984375 h 0.6875 v -6 h -0.6875 z m 0,0"
               id="id-55b65479-7578-4c4d-8497-a675ea9b5fb1" />
          </g>
        </g>
        <g
           style="fill:#000000;fill-opacity:1"
           id="id-709f2169-8514-4428-a658-5c7c431c4f88">
          <g
             transform="translate(386.753,172.279)"
             id="g1381">
            <path
               style="stroke:none;stroke-width:0"
               d="m 2.703125,5.984375 h 0.6875 v -6 h -0.6875 z m 0,0"
               id="id-260fe4d6-7efe-4aaa-bbc7-5df995e1e20f" />
          </g>
        </g>
        <g
           style="fill:#000000;fill-opacity:1"
           id="id-82666b1f-b41a-4032-a0aa-96d7e4fce305">
          <g
             transform="translate(386.753,178.257)"
             id="g7117">
            <path
               style="stroke:none;stroke-width:0"
               d="m 2.703125,5.984375 h 0.6875 v -6 h -0.6875 z m 0,0"
               id="id-7a993772-a582-421e-b978-f91e3e6ada3c" />
          </g>
        </g>
        <g
           style="fill:#000000;fill-opacity:1"
           id="id-2ce00267-e53e-49fa-b58c-ef13b369b00f">
          <g
             transform="translate(386.753,184.235)"
             id="g8034">
            <path
               style="stroke:none;stroke-width:0"
               d="m 2.703125,5.984375 h 0.6875 v -6 h -0.6875 z m 0,0"
               id="id-1dbddfe5-de12-4ee2-9e33-8e21c3a6de98" />
          </g>
        </g>
        <g
           style="fill:#000000;fill-opacity:1"
           id="id-132dba15-1ff0-4284-9d15-6aef9214ea6f">
          <g
             transform="translate(386.753,190.212)"
             id="g5042">
            <path
               style="stroke:none;stroke-width:0"
               d="m 2.703125,5.984375 h 0.6875 v -6 h -0.6875 z m 0,0"
               id="id-3376fbe0-1c39-440d-a7e4-acf63825766e" />
          </g>
        </g>
        <g
           style="fill:#000000;fill-opacity:1"
           id="id-8b0343dc-0baf-4978-8ca9-119f2bfc13f7">
          <g
             transform="translate(386.753,196.19)"
             id="g2496">
            <path
               style="stroke:none;stroke-width:0"
               d="m 2.703125,5.984375 h 0.6875 v -6 h -0.6875 z m 0,0"
               id="id-b7a1db00-4a77-46d7-b53d-e8fde06405fe" />
          </g>
        </g>
        <g
           style="fill:#000000;fill-opacity:1"
           id="id-e407af4b-9385-42a6-b794-b043ac174c20">
          <g
             transform="translate(386.753,202.566)"
             id="g6144">
            <path
               style="stroke:none;stroke-width:0"
               d="M 2.703125,16.84375 H 0.0625 v 0.6875 h 3.328125 v -17.9375 h -0.6875 z m 0,0"
               id="id-6f059119-c039-40a8-a0da-416c8da9e1b6" />
          </g>
        </g>
      </g>
    </g>
    <rect
       style="fill:#cccccc;stroke:#000000;stroke-width:0.223669"
       id="rect1"
       width="90.976677"
       height="12.257253"
       x="100.72031"
       y="14.186982" />
    <rect
       style="fill:#cccccc;stroke:#000000;stroke-width:0.223873"
       id="rect1-3"
       width="91.14328"
       height="12.25705"
       x="100.46307"
       y="94.689453" />
    <rect
       style="fill:#666666;stroke:#000000;stroke-width:0.214268"
       id="rect4"
       width="11.623659"
       height="92.669556"
       x="100.69942"
       y="14.190928" />
    <rect
       style="fill:#666666;stroke:#000000;stroke-width:0.213906"
       id="rect4-0"
       width="11.624022"
       height="92.354324"
       x="180.28458"
       y="14.488902" />
    <text
       xml:space="preserve"
       style="font-size:9.15568px;line-height:1.25;font-family:sans-serif;letter-spacing:0px;stroke-width:0.228892"
       x="5.6577544"
       y="22.147429"
       id="text4"><tspan
         sodipodi:role="line"
         id="tspan4"
         style="stroke-width:0.228892"
         x="5.6577544"
         y="22.147429">ignored</tspan></text>
    <text
       xml:space="preserve"
       style="font-size:9.15568px;line-height:1.25;font-family:sans-serif;letter-spacing:0px;stroke-width:0.228892"
       x="5.7328916"
       y="104.3841"
       id="text4-7"><tspan
         sodipodi:role="line"
         id="tspan4-5"
         style="stroke-width:0.228892"
         x="5.7328916"
         y="104.3841">ignored</tspan></text>
    <path
       style="fill:none;stroke:#000000;stroke-width:0.661807;stroke-linecap:butt;stroke-linejoin:miter;stroke-dasharray:none;stroke-opacity:1;marker-end:url(#Triangle)"
       d="m 40.743451,19.683134 h 9.186897"
       id="path4" />
    <path
       style="fill:none;stroke:#000000;stroke-width:0.661807;stroke-linecap:butt;stroke-linejoin:miter;stroke-dasharray:none;stroke-opacity:1;marker-end:url(#Triangle-2)"
       d="m 40.531495,101.62441 h 9.186899"
       id="path4-7" />
    <text
       xml:space="preserve"
       style="font-size:10.4523px;line-height:1.25;font-family:sans-serif;letter-spacing:0px;stroke-width:0.261307"
       x="241.43271"
       y="24.123848"
       id="text5"><tspan
         sodipodi:role="line"
         id="tspan5"
         style="stroke-width:0.261307"
         x="241.43271"
         y="24.123848">zeroed</tspan></text>
    <text
       xml:space="preserve"
       style="font-size:10.4523px;line-height:1.25;font-family:sans-serif;letter-spacing:0px;stroke-width:0.261307"
       x="241.31276"
       y="106.3584"
       id="text5-2"><tspan
         sodipodi:role="line"
         id="tspan5-9"
         style="stroke-width:0.261307"
         x="241.31276"
         y="106.3584">zeroed</tspan></text>
    <path
       style="fill:none;stroke:#000000;stroke-width:0.656766;stroke-linecap:butt;stroke-linejoin:miter;stroke-dasharray:none;stroke-opacity:1;marker-end:url(#Triangle)"
       d="m 239.04399,20.384915 h -9.66323"
       id="path5" />
    <path
       style="fill:none;stroke:#000000;stroke-width:0.656766;stroke-linecap:butt;stroke-linejoin:miter;stroke-dasharray:none;stroke-opacity:1;marker-end:url(#Triangle-9)"
       d="m 239.26288,103.40655 h -9.66324"
       id="path5-8" />
  </g>
</svg>
